<?xml version="1.0" encoding="UTF-8"?>
<svg xmlns="http://www.w3.org/2000/svg"
     viewBox="0 0 266 255"
     width="266" height="255"
     role="img"
     aria-label="Royal Indraprastha Builders">
  <title>Royal Indraprastha Builders</title>
  <path d="M 131.00,246.00 L 133.00,243.00 L 136.00,246.00 L 134.00,248.00 L 133.00,248.00 Z M 133.00,240.00 L 132.00,241.00 L 132.00,242.00 L 128.00,246.00 L 132.00,250.00 L 132.00,251.00 L 134.00,251.00 L 135.00,250.00 L 135.00,249.00 L 138.00,246.00 L 138.00,245.00 L 137.00,245.00 Z M 142.00,237.00 L 143.00,236.00 L 144.00,236.00 L 145.00,237.00 L 147.00,237.00 L 150.00,239.00 L 149.00,240.00 L 146.00,240.00 L 145.00,239.00 L 144.00,239.00 Z M 124.00,237.00 L 124.00,238.00 L 121.00,240.00 L 118.00,240.00 L 117.00,239.00 L 119.00,237.00 L 122.00,237.00 L 123.00,236.00 Z M 53.00,241.00 L 58.00,244.00 L 59.00,244.00 L 61.00,242.00 L 74.00,242.00 L 75.00,243.00 L 77.00,243.00 L 78.00,242.00 L 98.00,242.00 L 99.00,243.00 L 100.00,246.00 L 101.00,247.00 L 103.00,247.00 L 104.00,248.00 L 107.00,247.00 L 109.00,244.00 L 108.00,243.00 L 106.00,246.00 L 102.00,246.00 L 101.00,245.00 L 101.00,243.00 L 100.00,242.00 L 101.00,241.00 L 101.00,240.00 L 102.00,239.00 L 104.00,239.00 L 105.00,238.00 L 107.00,238.00 L 108.00,239.00 L 111.00,239.00 L 112.00,240.00 L 113.00,240.00 L 114.00,241.00 L 115.00,244.00 L 116.00,244.00 L 117.00,245.00 L 123.00,245.00 L 124.00,244.00 L 127.00,243.00 L 133.00,237.00 L 134.00,237.00 L 135.00,238.00 L 135.00,239.00 L 138.00,242.00 L 139.00,242.00 L 141.00,244.00 L 143.00,244.00 L 144.00,245.00 L 150.00,245.00 L 152.00,243.00 L 152.00,241.00 L 153.00,240.00 L 154.00,240.00 L 155.00,239.00 L 159.00,239.00 L 160.00,238.00 L 162.00,238.00 L 163.00,239.00 L 164.00,239.00 L 166.00,241.00 L 166.00,244.00 L 164.00,246.00 L 161.00,246.00 L 158.00,243.00 L 158.00,245.00 L 160.00,247.00 L 161.00,247.00 L 162.00,248.00 L 165.00,247.00 L 167.00,245.00 L 167.00,243.00 L 168.00,242.00 L 189.00,242.00 L 190.00,243.00 L 192.00,243.00 L 193.00,242.00 L 206.00,242.00 L 208.00,244.00 L 209.00,244.00 L 211.00,242.00 L 213.00,242.00 L 214.00,241.00 L 212.00,241.00 L 209.00,239.00 L 208.00,239.00 L 206.00,241.00 L 193.00,241.00 L 192.00,240.00 L 189.00,240.00 L 188.00,241.00 L 168.00,241.00 L 164.00,237.00 L 157.00,237.00 L 156.00,238.00 L 154.00,238.00 L 153.00,239.00 L 152.00,239.00 L 150.00,237.00 L 149.00,237.00 L 148.00,236.00 L 146.00,236.00 L 145.00,235.00 L 140.00,235.00 L 140.00,237.00 L 143.00,240.00 L 144.00,240.00 L 145.00,241.00 L 150.00,241.00 L 151.00,242.00 L 149.00,244.00 L 145.00,244.00 L 144.00,243.00 L 142.00,243.00 L 140.00,241.00 L 139.00,241.00 L 136.00,238.00 L 136.00,237.00 L 134.00,235.00 L 132.00,235.00 L 132.00,236.00 L 126.00,242.00 L 125.00,242.00 L 122.00,244.00 L 118.00,244.00 L 116.00,242.00 L 117.00,241.00 L 121.00,241.00 L 122.00,240.00 L 125.00,239.00 L 125.00,238.00 L 127.00,236.00 L 127.00,235.00 L 121.00,235.00 L 120.00,236.00 L 118.00,236.00 L 116.00,238.00 L 115.00,238.00 L 114.00,239.00 L 113.00,238.00 L 111.00,238.00 L 110.00,237.00 L 103.00,237.00 L 102.00,238.00 L 101.00,238.00 L 99.00,241.00 L 78.00,241.00 L 77.00,240.00 L 75.00,240.00 L 74.00,241.00 L 61.00,241.00 L 59.00,239.00 L 58.00,239.00 L 55.00,241.00 Z M 262.00,199.00 L 260.00,199.00 L 257.00,197.00 L 255.00,199.00 L 241.00,199.00 L 240.00,198.00 L 239.00,198.00 L 238.00,199.00 L 185.00,199.00 L 185.00,200.00 L 237.00,200.00 L 238.00,201.00 L 241.00,201.00 L 242.00,200.00 L 255.00,200.00 L 256.00,201.00 L 256.00,202.00 L 258.00,202.00 L 260.00,200.00 L 262.00,200.00 Z M 3.00,200.00 L 6.00,200.00 L 8.00,202.00 L 10.00,202.00 L 12.00,200.00 L 24.00,200.00 L 25.00,201.00 L 28.00,201.00 L 29.00,200.00 L 82.00,200.00 L 82.00,199.00 L 29.00,199.00 L 28.00,198.00 L 26.00,198.00 L 25.00,199.00 L 11.00,199.00 L 9.00,197.00 L 8.00,198.00 L 7.00,198.00 L 6.00,199.00 Z M 262.00,152.00 L 261.00,152.00 L 258.00,150.00 L 256.00,150.00 L 254.00,152.00 L 242.00,152.00 L 241.00,151.00 L 238.00,151.00 L 237.00,152.00 L 178.00,152.00 L 178.00,153.00 L 238.00,153.00 L 239.00,154.00 L 240.00,154.00 L 241.00,153.00 L 255.00,153.00 L 257.00,155.00 Z M 4.00,152.00 L 5.00,153.00 L 7.00,153.00 L 9.00,155.00 L 10.00,155.00 L 10.00,154.00 L 11.00,153.00 L 25.00,153.00 L 26.00,154.00 L 28.00,154.00 L 29.00,153.00 L 88.00,153.00 L 88.00,152.00 L 29.00,152.00 L 28.00,151.00 L 26.00,151.00 L 25.00,152.00 L 12.00,152.00 L 10.00,150.00 L 8.00,150.00 L 6.00,152.00 Z M 89.00,136.00 L 90.00,135.00 L 91.00,136.00 L 90.00,137.00 Z M 174.00,134.00 L 175.00,133.00 L 176.00,134.00 L 176.00,135.00 L 175.00,136.00 L 174.00,135.00 Z M 90.00,134.00 L 91.00,133.00 L 92.00,134.00 L 92.00,135.00 L 91.00,136.00 L 90.00,135.00 Z M 186.00,131.00 L 187.00,130.00 L 188.00,130.00 L 189.00,131.00 L 188.00,132.00 L 187.00,132.00 Z M 136.00,131.00 L 137.00,130.00 L 138.00,131.00 L 137.00,132.00 Z M 77.00,131.00 L 78.00,130.00 L 79.00,130.00 L 80.00,131.00 L 79.00,132.00 L 78.00,132.00 Z M 181.00,130.00 L 182.00,129.00 L 183.00,130.00 L 182.00,131.00 Z M 143.00,130.00 L 144.00,129.00 L 145.00,130.00 L 144.00,131.00 Z M 83.00,130.00 L 84.00,129.00 L 85.00,130.00 L 84.00,131.00 Z M 196.00,129.00 L 197.00,128.00 L 198.00,128.00 L 199.00,129.00 L 198.00,130.00 L 197.00,130.00 Z M 183.00,129.00 L 184.00,128.00 L 185.00,129.00 L 184.00,130.00 Z M 179.00,129.00 L 180.00,128.00 L 181.00,128.00 L 182.00,129.00 L 181.00,130.00 L 180.00,130.00 Z M 160.00,129.00 L 161.00,128.00 L 162.00,129.00 L 163.00,128.00 L 165.00,130.00 L 166.00,133.00 L 165.00,134.00 L 162.00,134.00 L 160.00,131.00 Z M 150.00,130.00 L 153.00,128.00 L 158.00,128.00 L 159.00,129.00 L 157.00,131.00 L 151.00,131.00 Z M 146.00,129.00 L 147.00,128.00 L 148.00,129.00 L 147.00,130.00 Z M 107.00,129.00 L 108.00,128.00 L 113.00,128.00 L 116.00,130.00 L 115.00,131.00 L 109.00,131.00 Z M 104.00,128.00 L 106.00,130.00 L 106.00,131.00 L 102.00,135.00 L 100.00,133.00 L 100.00,132.00 L 102.00,130.00 L 102.00,129.00 L 103.00,128.00 Z M 85.00,129.00 L 86.00,128.00 L 87.00,129.00 L 86.00,130.00 Z M 81.00,129.00 L 82.00,128.00 L 83.00,129.00 L 82.00,130.00 Z M 67.00,129.00 L 68.00,128.00 L 69.00,128.00 L 70.00,129.00 L 69.00,130.00 L 68.00,130.00 Z M 199.00,128.00 L 200.00,127.00 L 201.00,128.00 L 200.00,129.00 Z M 181.00,128.00 L 182.00,127.00 L 183.00,128.00 L 182.00,129.00 Z M 178.00,128.00 L 179.00,127.00 L 180.00,128.00 L 179.00,129.00 Z M 115.00,128.00 L 116.00,127.00 L 117.00,128.00 L 116.00,129.00 Z M 106.00,128.00 L 107.00,127.00 L 108.00,128.00 L 107.00,129.00 Z M 86.00,128.00 L 87.00,127.00 L 88.00,128.00 L 87.00,129.00 Z M 83.00,128.00 L 84.00,127.00 L 85.00,128.00 L 84.00,129.00 Z M 64.00,128.00 L 65.00,127.00 L 66.00,127.00 L 67.00,128.00 L 66.00,129.00 L 65.00,129.00 Z M 201.00,127.00 L 202.00,126.00 L 203.00,127.00 L 202.00,128.00 Z M 179.00,127.00 L 180.00,126.00 L 181.00,127.00 L 180.00,128.00 Z M 161.00,127.00 L 162.00,126.00 L 163.00,127.00 L 162.00,128.00 Z M 151.00,127.00 L 152.00,126.00 L 153.00,127.00 L 152.00,128.00 Z M 113.00,127.00 L 114.00,126.00 L 115.00,127.00 L 114.00,128.00 Z M 103.00,127.00 L 104.00,126.00 L 105.00,127.00 L 104.00,128.00 Z M 85.00,127.00 L 86.00,126.00 L 87.00,127.00 L 86.00,128.00 Z M 76.00,127.00 L 77.00,126.00 L 78.00,127.00 L 77.00,128.00 Z M 63.00,127.00 L 64.00,126.00 L 65.00,127.00 L 64.00,128.00 Z M 202.00,126.00 L 203.00,125.00 L 204.00,126.00 L 203.00,127.00 Z M 185.00,126.00 L 186.00,125.00 L 187.00,126.00 L 186.00,127.00 Z M 181.00,126.00 L 182.00,125.00 L 183.00,126.00 L 182.00,127.00 Z M 162.00,126.00 L 163.00,125.00 L 164.00,126.00 L 163.00,127.00 Z M 158.00,126.00 L 159.00,125.00 L 160.00,126.00 L 159.00,127.00 Z M 153.00,126.00 L 154.00,125.00 L 155.00,126.00 L 154.00,127.00 Z M 106.00,126.00 L 107.00,125.00 L 108.00,126.00 L 107.00,127.00 Z M 102.00,126.00 L 103.00,125.00 L 104.00,126.00 L 103.00,127.00 Z M 79.00,126.00 L 80.00,125.00 L 81.00,125.00 L 82.00,126.00 L 81.00,127.00 L 80.00,127.00 Z M 62.00,126.00 L 63.00,125.00 L 64.00,126.00 L 63.00,127.00 Z M 182.00,125.00 L 183.00,124.00 L 184.00,125.00 L 183.00,126.00 Z M 179.00,125.00 L 180.00,124.00 L 181.00,125.00 L 180.00,126.00 Z M 165.00,125.00 L 166.00,124.00 L 167.00,125.00 L 166.00,126.00 Z M 163.00,125.00 L 164.00,124.00 L 165.00,125.00 L 164.00,126.00 Z M 159.00,125.00 L 160.00,124.00 L 161.00,125.00 L 160.00,126.00 Z M 155.00,125.00 L 156.00,124.00 L 157.00,125.00 L 156.00,126.00 Z M 105.00,125.00 L 106.00,124.00 L 107.00,125.00 L 106.00,126.00 Z M 85.00,125.00 L 86.00,124.00 L 87.00,125.00 L 86.00,126.00 Z M 81.00,125.00 L 82.00,124.00 L 83.00,124.00 L 84.00,125.00 L 83.00,126.00 L 82.00,126.00 Z M 180.00,124.00 L 181.00,123.00 L 182.00,123.00 L 183.00,124.00 L 182.00,125.00 L 181.00,125.00 Z M 166.00,124.00 L 167.00,123.00 L 168.00,124.00 L 167.00,125.00 Z M 164.00,124.00 L 165.00,123.00 L 166.00,124.00 L 165.00,125.00 Z M 100.00,124.00 L 101.00,123.00 L 102.00,124.00 L 101.00,125.00 Z M 98.00,124.00 L 99.00,123.00 L 100.00,124.00 L 99.00,125.00 Z M 83.00,124.00 L 84.00,123.00 L 85.00,123.00 L 86.00,124.00 L 85.00,125.00 L 84.00,125.00 Z M 203.00,123.00 L 204.00,122.00 L 205.00,123.00 L 205.00,124.00 L 204.00,125.00 L 203.00,124.00 Z M 165.00,123.00 L 166.00,122.00 L 167.00,123.00 L 166.00,124.00 Z M 158.00,123.00 L 159.00,122.00 L 160.00,123.00 L 159.00,124.00 Z M 146.00,125.00 L 145.00,124.00 L 145.00,123.00 L 145.00,124.00 L 144.00,125.00 L 143.00,124.00 L 142.00,124.00 L 144.00,126.00 L 144.00,125.00 L 145.00,124.00 Z M 123.00,123.00 L 123.00,124.00 L 122.00,125.00 L 123.00,124.00 L 125.00,126.00 L 125.00,125.00 L 124.00,125.00 L 123.00,124.00 Z M 61.00,123.00 L 62.00,122.00 L 63.00,123.00 L 63.00,124.00 L 62.00,125.00 L 61.00,124.00 Z M 159.00,122.00 L 160.00,121.00 L 161.00,122.00 L 160.00,123.00 Z M 116.00,121.00 L 115.00,122.00 L 115.00,123.00 L 115.00,122.00 L 116.00,121.00 L 117.00,122.00 L 117.00,124.00 L 118.00,123.00 L 118.00,122.00 L 117.00,122.00 Z M 153.00,120.00 L 153.00,121.00 L 152.00,122.00 L 151.00,122.00 L 150.00,121.00 L 151.00,122.00 L 151.00,123.00 L 153.00,121.00 L 154.00,122.00 L 153.00,121.00 Z M 171.00,118.00 L 172.00,118.00 L 173.00,119.00 L 174.00,119.00 L 175.00,120.00 L 176.00,120.00 L 181.00,123.00 L 179.00,125.00 L 180.00,126.00 L 178.00,128.00 L 176.00,126.00 L 176.00,125.00 L 174.00,122.00 L 174.00,123.00 L 176.00,126.00 L 176.00,128.00 L 175.00,129.00 L 174.00,128.00 L 172.00,128.00 L 174.00,131.00 L 174.00,135.00 L 173.00,136.00 L 171.00,136.00 L 170.00,135.00 L 169.00,135.00 L 168.00,134.00 L 168.00,133.00 L 165.00,130.00 L 165.00,129.00 L 163.00,127.00 L 165.00,125.00 L 166.00,126.00 L 170.00,122.00 L 171.00,123.00 L 171.00,122.00 L 170.00,121.00 L 171.00,120.00 L 170.00,119.00 Z M 167.00,118.00 L 168.00,117.00 L 170.00,117.00 L 171.00,118.00 L 170.00,119.00 L 168.00,119.00 Z M 128.00,118.00 L 129.00,117.00 L 130.00,118.00 L 129.00,119.00 Z M 111.00,118.00 L 110.00,118.00 L 110.00,120.00 L 111.00,119.00 Z M 98.00,117.00 L 99.00,118.00 L 98.00,119.00 L 96.00,119.00 L 95.00,120.00 L 96.00,121.00 L 95.00,122.00 L 95.00,123.00 L 96.00,123.00 L 97.00,124.00 L 97.00,125.00 L 98.00,124.00 L 99.00,125.00 L 100.00,124.00 L 103.00,127.00 L 100.00,130.00 L 100.00,131.00 L 98.00,133.00 L 98.00,134.00 L 97.00,135.00 L 96.00,135.00 L 95.00,136.00 L 93.00,136.00 L 92.00,135.00 L 92.00,131.00 L 94.00,128.00 L 92.00,128.00 L 91.00,129.00 L 90.00,128.00 L 90.00,126.00 L 92.00,123.00 L 91.00,123.00 L 90.00,126.00 L 88.00,128.00 L 86.00,126.00 L 87.00,125.00 L 87.00,124.00 L 86.00,124.00 L 85.00,123.00 L 86.00,122.00 L 87.00,122.00 L 88.00,121.00 L 91.00,120.00 L 93.00,118.00 L 94.00,118.00 L 95.00,117.00 Z M 129.00,117.00 L 130.00,116.00 L 131.00,117.00 L 130.00,118.00 Z M 125.00,117.00 L 126.00,116.00 L 127.00,117.00 L 126.00,118.00 Z M 157.00,116.00 L 159.00,118.00 L 160.00,117.00 Z M 130.00,116.00 L 131.00,115.00 L 132.00,116.00 L 131.00,117.00 Z M 141.00,114.00 L 142.00,113.00 L 143.00,114.00 L 142.00,115.00 Z M 125.00,114.00 L 126.00,113.00 L 127.00,114.00 L 127.00,115.00 L 126.00,116.00 L 125.00,115.00 Z M 123.00,114.00 L 124.00,113.00 L 125.00,114.00 L 124.00,115.00 Z M 168.00,113.00 L 169.00,112.00 L 170.00,113.00 L 169.00,114.00 Z M 142.00,113.00 L 143.00,112.00 L 144.00,113.00 L 143.00,114.00 Z M 131.00,112.00 L 132.00,113.00 L 128.00,117.00 L 127.00,117.00 L 126.00,116.00 L 130.00,112.00 Z M 126.00,113.00 L 127.00,112.00 L 128.00,113.00 L 127.00,114.00 Z M 117.00,113.00 L 118.00,112.00 L 119.00,113.00 L 119.00,114.00 L 118.00,115.00 L 117.00,114.00 Z M 96.00,113.00 L 97.00,112.00 L 98.00,113.00 L 97.00,114.00 Z M 169.00,112.00 L 170.00,111.00 L 171.00,112.00 L 170.00,113.00 Z M 143.00,112.00 L 144.00,111.00 L 145.00,112.00 L 144.00,113.00 Z M 134.00,111.00 L 135.00,112.00 L 135.00,113.00 L 132.00,116.00 L 131.00,115.00 L 131.00,114.00 Z M 131.00,112.00 L 132.00,111.00 L 133.00,112.00 L 132.00,113.00 Z M 127.00,112.00 L 128.00,111.00 L 129.00,112.00 L 128.00,113.00 Z M 178.00,111.00 L 179.00,110.00 L 183.00,110.00 L 184.00,111.00 L 183.00,112.00 L 179.00,112.00 Z M 140.00,111.00 L 141.00,110.00 L 142.00,111.00 L 141.00,112.00 Z M 132.00,111.00 L 133.00,110.00 L 134.00,111.00 L 133.00,112.00 Z M 128.00,111.00 L 129.00,110.00 L 130.00,110.00 L 131.00,111.00 L 130.00,112.00 L 129.00,112.00 Z M 126.00,110.00 L 127.00,111.00 L 127.00,112.00 L 125.00,114.00 L 124.00,113.00 L 124.00,112.00 Z M 115.00,111.00 L 116.00,110.00 L 117.00,111.00 L 116.00,112.00 Z M 101.00,111.00 L 102.00,110.00 L 103.00,111.00 L 102.00,112.00 Z M 83.00,111.00 L 84.00,110.00 L 88.00,110.00 L 89.00,111.00 L 88.00,112.00 L 84.00,112.00 Z M 175.00,110.00 L 176.00,109.00 L 177.00,109.00 L 178.00,110.00 L 177.00,111.00 L 176.00,111.00 Z M 170.00,110.00 L 171.00,109.00 L 172.00,110.00 L 171.00,111.00 Z M 141.00,110.00 L 142.00,109.00 L 143.00,110.00 L 142.00,111.00 Z M 137.00,109.00 L 138.00,110.00 L 138.00,113.00 L 140.00,115.00 L 140.00,116.00 L 141.00,117.00 L 140.00,118.00 L 139.00,118.00 L 137.00,116.00 L 137.00,115.00 L 136.00,114.00 L 136.00,110.00 Z M 134.00,110.00 L 135.00,109.00 L 136.00,110.00 L 136.00,111.00 L 135.00,112.00 L 134.00,111.00 Z M 130.00,110.00 L 131.00,109.00 L 132.00,110.00 L 131.00,111.00 Z M 114.00,110.00 L 115.00,109.00 L 116.00,110.00 L 115.00,111.00 Z M 88.00,110.00 L 89.00,109.00 L 91.00,109.00 L 92.00,110.00 L 91.00,111.00 L 89.00,111.00 Z M 153.00,108.00 L 154.00,109.00 L 154.00,111.00 L 153.00,112.00 L 152.00,111.00 L 152.00,109.00 Z M 139.00,109.00 L 140.00,108.00 L 141.00,109.00 L 140.00,110.00 Z M 131.00,109.00 L 132.00,108.00 L 133.00,109.00 L 132.00,110.00 Z M 117.00,109.00 L 118.00,108.00 L 119.00,109.00 L 119.00,110.00 L 118.00,111.00 L 117.00,110.00 Z M 103.00,109.00 L 101.00,111.00 L 102.00,112.00 L 104.00,110.00 Z M 155.00,108.00 L 156.00,107.00 L 157.00,108.00 L 156.00,109.00 Z M 140.00,108.00 L 141.00,107.00 L 142.00,108.00 L 141.00,109.00 Z M 137.00,108.00 L 138.00,107.00 L 139.00,108.00 L 139.00,109.00 L 138.00,110.00 L 137.00,109.00 Z M 132.00,108.00 L 133.00,107.00 L 134.00,108.00 L 133.00,109.00 Z M 184.00,107.00 L 185.00,106.00 L 186.00,106.00 L 187.00,107.00 L 186.00,108.00 L 185.00,108.00 Z M 156.00,107.00 L 157.00,106.00 L 158.00,107.00 L 157.00,108.00 Z M 147.00,106.00 L 148.00,107.00 L 148.00,108.00 L 147.00,109.00 L 147.00,110.00 L 145.00,112.00 L 144.00,111.00 L 144.00,110.00 L 145.00,109.00 L 145.00,107.00 L 146.00,106.00 Z M 141.00,107.00 L 142.00,106.00 L 143.00,107.00 L 142.00,108.00 Z M 138.00,107.00 L 139.00,106.00 L 140.00,107.00 L 139.00,108.00 Z M 133.00,107.00 L 134.00,106.00 L 135.00,107.00 L 134.00,108.00 Z M 127.00,106.00 L 128.00,107.00 L 128.00,110.00 L 127.00,111.00 L 126.00,110.00 L 126.00,107.00 Z M 123.00,107.00 L 124.00,106.00 L 125.00,107.00 L 124.00,108.00 Z M 116.00,107.00 L 117.00,106.00 L 118.00,107.00 L 117.00,108.00 Z M 188.00,106.00 L 189.00,105.00 L 191.00,105.00 L 192.00,106.00 L 191.00,107.00 L 189.00,107.00 Z M 153.00,106.00 L 154.00,105.00 L 155.00,105.00 L 156.00,106.00 L 155.00,107.00 L 154.00,107.00 Z M 136.00,106.00 L 137.00,105.00 L 138.00,106.00 L 137.00,107.00 Z M 134.00,106.00 L 135.00,105.00 L 136.00,106.00 L 135.00,107.00 Z M 125.00,106.00 L 126.00,105.00 L 127.00,106.00 L 126.00,107.00 Z M 122.00,106.00 L 123.00,105.00 L 124.00,106.00 L 123.00,107.00 Z M 75.00,106.00 L 76.00,105.00 L 77.00,105.00 L 78.00,106.00 L 77.00,107.00 L 76.00,107.00 Z M 151.00,105.00 L 152.00,104.00 L 153.00,104.00 L 154.00,105.00 L 153.00,106.00 L 152.00,106.00 Z M 149.00,104.00 L 151.00,107.00 L 151.00,111.00 L 150.00,112.00 L 150.00,113.00 L 148.00,115.00 L 147.00,115.00 L 145.00,117.00 L 143.00,117.00 L 142.00,116.00 L 145.00,113.00 L 146.00,113.00 L 146.00,112.00 L 148.00,110.00 L 148.00,105.00 Z M 144.00,105.00 L 145.00,104.00 L 146.00,105.00 L 145.00,106.00 Z M 113.00,105.00 L 114.00,104.00 L 115.00,105.00 L 114.00,106.00 Z M 97.00,105.00 L 98.00,105.00 L 99.00,106.00 L 98.00,107.00 L 100.00,105.00 Z M 72.00,105.00 L 73.00,104.00 L 74.00,104.00 L 75.00,105.00 L 74.00,106.00 L 73.00,106.00 Z M 222.00,105.00 L 222.00,104.00 L 223.00,103.00 L 225.00,103.00 L 226.00,104.00 L 224.00,106.00 L 223.00,106.00 Z M 191.00,105.00 L 194.00,103.00 L 195.00,103.00 L 196.00,104.00 L 194.00,106.00 L 192.00,106.00 Z M 156.00,104.00 L 157.00,103.00 L 158.00,104.00 L 157.00,105.00 Z M 114.00,104.00 L 115.00,103.00 L 116.00,104.00 L 115.00,105.00 Z M 112.00,104.00 L 113.00,103.00 L 114.00,104.00 L 113.00,105.00 Z M 106.00,104.00 L 107.00,103.00 L 108.00,104.00 L 107.00,105.00 Z M 40.00,104.00 L 41.00,103.00 L 43.00,103.00 L 44.00,104.00 L 44.00,105.00 L 43.00,106.00 L 42.00,106.00 Z M 153.00,103.00 L 154.00,102.00 L 155.00,103.00 L 155.00,104.00 L 154.00,105.00 L 153.00,104.00 Z M 141.00,102.00 L 142.00,103.00 L 142.00,105.00 L 140.00,107.00 L 139.00,106.00 L 139.00,105.00 Z M 138.00,103.00 L 139.00,102.00 L 140.00,103.00 L 140.00,104.00 L 139.00,105.00 L 138.00,104.00 Z M 113.00,103.00 L 114.00,102.00 L 115.00,103.00 L 114.00,104.00 Z M 111.00,103.00 L 112.00,102.00 L 113.00,103.00 L 112.00,104.00 Z M 109.00,102.00 L 115.00,109.00 L 114.00,110.00 L 116.00,112.00 L 115.00,113.00 L 114.00,113.00 L 107.00,106.00 L 107.00,105.00 L 108.00,104.00 L 109.00,105.00 L 108.00,104.00 L 108.00,103.00 Z M 74.00,103.00 L 75.00,102.00 L 76.00,103.00 L 75.00,104.00 Z M 192.00,102.00 L 193.00,101.00 L 194.00,102.00 L 193.00,103.00 Z M 174.00,102.00 L 175.00,101.00 L 176.00,102.00 L 175.00,103.00 Z M 157.00,102.00 L 158.00,101.00 L 159.00,102.00 L 158.00,103.00 Z M 110.00,102.00 L 111.00,101.00 L 112.00,102.00 L 111.00,103.00 Z M 105.00,102.00 L 106.00,101.00 L 107.00,102.00 L 107.00,103.00 L 106.00,104.00 L 105.00,103.00 Z M 159.00,101.00 L 160.00,100.00 L 161.00,101.00 L 161.00,102.00 L 160.00,103.00 L 159.00,102.00 Z M 156.00,101.00 L 157.00,100.00 L 158.00,101.00 L 157.00,102.00 Z M 148.00,100.00 L 149.00,101.00 L 149.00,103.00 L 147.00,105.00 L 146.00,105.00 L 145.00,104.00 L 147.00,102.00 L 147.00,101.00 Z M 104.00,101.00 L 105.00,100.00 L 106.00,101.00 L 105.00,102.00 Z M 71.00,101.00 L 72.00,100.00 L 73.00,101.00 L 72.00,102.00 Z M 213.00,100.00 L 214.00,99.00 L 215.00,100.00 L 214.00,101.00 Z M 209.00,100.00 L 210.00,99.00 L 211.00,100.00 L 210.00,101.00 Z M 219.00,105.00 L 218.00,106.00 L 214.00,106.00 L 213.00,107.00 L 210.00,107.00 L 209.00,108.00 L 207.00,108.00 L 206.00,109.00 L 204.00,109.00 L 203.00,110.00 L 200.00,110.00 L 199.00,111.00 L 195.00,111.00 L 194.00,112.00 L 188.00,112.00 L 187.00,111.00 L 188.00,110.00 L 189.00,110.00 L 188.00,109.00 L 189.00,108.00 L 193.00,108.00 L 194.00,107.00 L 195.00,107.00 L 196.00,106.00 L 197.00,106.00 L 198.00,105.00 L 201.00,104.00 L 203.00,102.00 L 204.00,102.00 L 207.00,99.00 L 210.00,101.00 L 208.00,103.00 L 209.00,102.00 L 210.00,102.00 L 212.00,100.00 L 213.00,100.00 L 214.00,101.00 L 211.00,104.00 L 210.00,104.00 L 209.00,105.00 L 210.00,105.00 L 211.00,104.00 L 218.00,104.00 Z M 158.00,100.00 L 159.00,99.00 L 160.00,100.00 L 159.00,101.00 Z M 155.00,100.00 L 156.00,99.00 L 157.00,100.00 L 156.00,101.00 Z M 115.00,100.00 L 118.00,100.00 L 119.00,99.00 L 120.00,99.00 L 121.00,100.00 L 126.00,100.00 L 127.00,101.00 L 130.00,101.00 L 133.00,103.00 L 130.00,106.00 L 128.00,106.00 L 127.00,105.00 L 126.00,105.00 L 125.00,106.00 L 121.00,102.00 L 121.00,105.00 L 122.00,106.00 L 122.00,107.00 L 123.00,107.00 L 125.00,109.00 L 125.00,110.00 L 123.00,113.00 L 123.00,114.00 L 124.00,115.00 L 124.00,116.00 L 123.00,117.00 L 121.00,115.00 L 121.00,114.00 L 120.00,113.00 L 120.00,110.00 L 119.00,109.00 L 119.00,107.00 L 116.00,104.00 L 116.00,103.00 L 114.00,101.00 Z M 111.00,100.00 L 112.00,99.00 L 113.00,100.00 L 112.00,101.00 Z M 106.00,100.00 L 107.00,99.00 L 109.00,101.00 L 109.00,102.00 L 108.00,103.00 L 106.00,101.00 Z M 55.00,100.00 L 56.00,99.00 L 57.00,100.00 L 56.00,101.00 Z M 210.00,99.00 L 211.00,98.00 L 212.00,99.00 L 211.00,100.00 Z M 157.00,99.00 L 158.00,98.00 L 159.00,99.00 L 158.00,100.00 Z M 153.00,99.00 L 154.00,98.00 L 155.00,98.00 L 156.00,99.00 L 155.00,100.00 L 154.00,100.00 Z M 146.00,99.00 L 147.00,98.00 L 148.00,99.00 L 147.00,100.00 Z M 143.00,99.00 L 144.00,98.00 L 145.00,99.00 L 144.00,100.00 Z M 138.00,99.00 L 139.00,98.00 L 142.00,100.00 L 144.00,100.00 L 146.00,102.00 L 145.00,103.00 L 143.00,103.00 L 142.00,102.00 L 140.00,102.00 L 138.00,100.00 Z M 110.00,99.00 L 111.00,98.00 L 112.00,99.00 L 111.00,100.00 Z M 108.00,99.00 L 109.00,98.00 L 111.00,100.00 L 111.00,101.00 L 110.00,102.00 L 108.00,100.00 Z M 65.00,99.00 L 66.00,98.00 L 70.00,102.00 L 71.00,102.00 L 73.00,104.00 L 72.00,105.00 L 69.00,104.00 L 65.00,100.00 Z M 54.00,99.00 L 55.00,98.00 L 56.00,99.00 L 55.00,100.00 Z M 217.00,97.00 L 218.00,98.00 L 216.00,100.00 L 215.00,100.00 L 214.00,99.00 L 216.00,97.00 Z M 211.00,98.00 L 212.00,97.00 L 213.00,98.00 L 212.00,99.00 Z M 103.00,98.00 L 104.00,97.00 L 105.00,98.00 L 105.00,99.00 L 104.00,100.00 L 103.00,99.00 Z M 68.00,98.00 L 69.00,97.00 L 70.00,98.00 L 69.00,99.00 Z M 53.00,98.00 L 54.00,97.00 L 55.00,98.00 L 54.00,99.00 Z M 44.00,98.00 L 45.00,97.00 L 46.00,98.00 L 45.00,99.00 Z M 217.00,97.00 L 218.00,96.00 L 219.00,97.00 L 218.00,98.00 Z M 155.00,97.00 L 156.00,96.00 L 157.00,97.00 L 156.00,98.00 Z M 139.00,97.00 L 140.00,96.00 L 141.00,97.00 L 140.00,98.00 Z M 117.00,97.00 L 118.00,96.00 L 119.00,97.00 L 118.00,98.00 Z M 111.00,97.00 L 112.00,96.00 L 115.00,96.00 L 116.00,97.00 L 115.00,98.00 L 116.00,97.00 L 117.00,97.00 L 118.00,98.00 L 116.00,100.00 L 113.00,100.00 L 111.00,98.00 Z M 109.00,97.00 L 110.00,96.00 L 111.00,97.00 L 111.00,98.00 L 110.00,99.00 L 109.00,98.00 Z M 107.00,97.00 L 108.00,96.00 L 109.00,97.00 L 109.00,98.00 L 108.00,99.00 L 107.00,98.00 Z M 106.00,96.00 L 107.00,97.00 L 107.00,99.00 L 106.00,100.00 L 105.00,99.00 L 105.00,97.00 Z M 67.00,97.00 L 68.00,96.00 L 69.00,97.00 L 68.00,98.00 Z M 64.00,97.00 L 65.00,96.00 L 66.00,97.00 L 66.00,98.00 L 65.00,99.00 L 64.00,98.00 Z M 218.00,96.00 L 219.00,95.00 L 220.00,96.00 L 219.00,97.00 Z M 212.00,96.00 L 213.00,95.00 L 214.00,96.00 L 213.00,97.00 Z M 210.00,95.00 L 211.00,96.00 L 211.00,97.00 L 208.00,100.00 L 207.00,99.00 L 207.00,98.00 Z M 153.00,96.00 L 154.00,95.00 L 155.00,95.00 L 156.00,96.00 L 155.00,97.00 L 154.00,97.00 Z M 138.00,96.00 L 139.00,95.00 L 140.00,96.00 L 139.00,97.00 Z M 118.00,96.00 L 119.00,95.00 L 120.00,95.00 L 122.00,97.00 L 123.00,97.00 L 124.00,98.00 L 122.00,100.00 L 121.00,99.00 L 120.00,99.00 Z M 115.00,96.00 L 116.00,95.00 L 117.00,96.00 L 116.00,97.00 Z M 102.00,96.00 L 103.00,95.00 L 104.00,96.00 L 103.00,97.00 Z M 47.00,105.00 L 48.00,104.00 L 55.00,104.00 L 56.00,105.00 L 56.00,104.00 L 55.00,104.00 L 52.00,101.00 L 53.00,100.00 L 54.00,100.00 L 56.00,102.00 L 57.00,102.00 L 56.00,101.00 L 57.00,100.00 L 58.00,100.00 L 55.00,97.00 L 55.00,96.00 L 56.00,95.00 L 65.00,104.00 L 66.00,104.00 L 67.00,105.00 L 68.00,105.00 L 73.00,108.00 L 77.00,108.00 L 78.00,109.00 L 77.00,110.00 L 78.00,111.00 L 77.00,112.00 L 72.00,112.00 L 71.00,111.00 L 67.00,111.00 L 66.00,110.00 L 64.00,110.00 L 63.00,109.00 L 60.00,109.00 L 59.00,108.00 L 57.00,108.00 L 56.00,107.00 L 53.00,107.00 L 52.00,106.00 L 48.00,106.00 Z M 52.00,96.00 L 53.00,95.00 L 54.00,96.00 L 53.00,97.00 Z M 219.00,95.00 L 220.00,94.00 L 221.00,95.00 L 220.00,96.00 Z M 213.00,95.00 L 214.00,94.00 L 215.00,95.00 L 214.00,96.00 Z M 202.00,94.00 L 203.00,95.00 L 203.00,97.00 L 202.00,98.00 L 202.00,99.00 L 197.00,104.00 L 196.00,104.00 L 195.00,103.00 L 200.00,98.00 L 200.00,97.00 Z M 155.00,95.00 L 156.00,94.00 L 157.00,95.00 L 156.00,96.00 Z M 108.00,95.00 L 109.00,94.00 L 110.00,95.00 L 110.00,96.00 L 109.00,97.00 L 108.00,96.00 Z M 63.00,95.00 L 64.00,94.00 L 65.00,95.00 L 65.00,96.00 L 64.00,97.00 L 63.00,96.00 Z M 51.00,95.00 L 52.00,94.00 L 53.00,95.00 L 52.00,96.00 Z M 176.00,94.00 L 177.00,93.00 L 178.00,94.00 L 178.00,95.00 L 177.00,96.00 L 176.00,95.00 Z M 161.00,93.00 L 162.00,93.00 L 164.00,95.00 L 164.00,96.00 L 162.00,99.00 L 161.00,99.00 L 159.00,97.00 L 159.00,96.00 L 160.00,95.00 L 161.00,95.00 L 160.00,94.00 Z M 152.00,94.00 L 153.00,93.00 L 154.00,94.00 L 153.00,95.00 Z M 95.00,94.00 L 94.00,95.00 L 95.00,96.00 L 96.00,95.00 Z M 66.00,94.00 L 67.00,93.00 L 68.00,94.00 L 67.00,95.00 Z M 54.00,94.00 L 55.00,93.00 L 56.00,94.00 L 56.00,95.00 L 55.00,96.00 L 54.00,95.00 Z M 214.00,93.00 L 215.00,92.00 L 216.00,93.00 L 215.00,94.00 Z M 162.00,93.00 L 163.00,92.00 L 164.00,93.00 L 163.00,94.00 Z M 102.00,93.00 L 103.00,92.00 L 104.00,93.00 L 103.00,94.00 Z M 50.00,93.00 L 51.00,92.00 L 52.00,93.00 L 51.00,94.00 Z M 44.00,93.00 L 45.00,92.00 L 53.00,100.00 L 52.00,101.00 L 51.00,101.00 L 44.00,94.00 Z M 221.00,92.00 L 222.00,91.00 L 223.00,92.00 L 222.00,93.00 Z M 212.00,91.00 L 213.00,92.00 L 213.00,94.00 L 211.00,96.00 L 210.00,95.00 L 210.00,94.00 Z M 172.00,92.00 L 171.00,93.00 L 172.00,94.00 L 173.00,93.00 Z M 153.00,92.00 L 154.00,91.00 L 155.00,92.00 L 155.00,93.00 L 154.00,94.00 L 153.00,93.00 Z M 148.00,92.00 L 149.00,91.00 L 151.00,91.00 L 152.00,92.00 L 150.00,94.00 Z M 134.00,91.00 L 135.00,92.00 L 135.00,94.00 L 133.00,96.00 L 132.00,95.00 L 132.00,94.00 Z M 53.00,92.00 L 54.00,91.00 L 55.00,92.00 L 55.00,93.00 L 54.00,94.00 L 53.00,93.00 Z M 43.00,92.00 L 44.00,91.00 L 45.00,92.00 L 44.00,93.00 Z M 222.00,91.00 L 223.00,90.00 L 224.00,91.00 L 223.00,92.00 Z M 160.00,91.00 L 161.00,90.00 L 162.00,91.00 L 161.00,92.00 Z M 159.00,90.00 L 160.00,91.00 L 160.00,94.00 L 159.00,95.00 L 158.00,94.00 L 158.00,91.00 Z M 157.00,90.00 L 158.00,91.00 L 158.00,94.00 L 157.00,95.00 L 156.00,94.00 L 156.00,91.00 Z M 152.00,91.00 L 153.00,90.00 L 154.00,91.00 L 153.00,92.00 Z M 107.00,90.00 L 108.00,91.00 L 108.00,96.00 L 107.00,97.00 L 105.00,95.00 L 105.00,93.00 Z M 103.00,91.00 L 104.00,90.00 L 105.00,91.00 L 105.00,92.00 L 104.00,93.00 L 103.00,92.00 Z M 42.00,91.00 L 43.00,90.00 L 44.00,91.00 L 43.00,92.00 Z M 215.00,90.00 L 216.00,89.00 L 217.00,90.00 L 217.00,91.00 L 216.00,92.00 L 215.00,91.00 Z M 212.00,90.00 L 213.00,89.00 L 214.00,90.00 L 214.00,91.00 L 213.00,92.00 L 212.00,91.00 Z M 162.00,90.00 L 163.00,89.00 L 164.00,90.00 L 163.00,91.00 Z M 155.00,90.00 L 156.00,89.00 L 157.00,90.00 L 156.00,91.00 Z M 150.00,90.00 L 151.00,89.00 L 152.00,90.00 L 151.00,91.00 Z M 109.00,90.00 L 110.00,89.00 L 111.00,90.00 L 110.00,91.00 Z M 52.00,90.00 L 53.00,89.00 L 54.00,90.00 L 54.00,91.00 L 53.00,92.00 L 52.00,91.00 Z M 49.00,90.00 L 50.00,89.00 L 51.00,90.00 L 51.00,91.00 L 50.00,92.00 L 49.00,91.00 Z M 21.00,90.00 L 22.00,89.00 L 24.00,89.00 L 25.00,90.00 L 24.00,91.00 L 22.00,91.00 Z M 163.00,89.00 L 164.00,88.00 L 165.00,89.00 L 164.00,90.00 Z M 160.00,89.00 L 161.00,88.00 L 162.00,89.00 L 161.00,90.00 Z M 145.00,89.00 L 146.00,88.00 L 147.00,89.00 L 146.00,90.00 Z M 142.00,89.00 L 143.00,88.00 L 144.00,89.00 L 143.00,90.00 Z M 137.00,90.00 L 139.00,88.00 L 140.00,89.00 L 140.00,90.00 L 145.00,95.00 L 147.00,95.00 L 148.00,96.00 L 150.00,96.00 L 151.00,97.00 L 153.00,97.00 L 154.00,98.00 L 153.00,99.00 L 150.00,99.00 L 149.00,98.00 L 147.00,98.00 L 146.00,97.00 L 144.00,97.00 L 142.00,95.00 L 141.00,95.00 L 140.00,96.00 L 138.00,94.00 L 138.00,93.00 L 137.00,92.00 Z M 24.00,89.00 L 25.00,88.00 L 26.00,89.00 L 25.00,90.00 Z M 219.00,88.00 L 220.00,87.00 L 221.00,88.00 L 220.00,89.00 Z M 162.00,88.00 L 163.00,87.00 L 164.00,88.00 L 163.00,89.00 Z M 110.00,88.00 L 111.00,87.00 L 112.00,88.00 L 111.00,89.00 Z M 45.00,88.00 L 46.00,87.00 L 47.00,88.00 L 46.00,89.00 Z M 19.00,88.00 L 20.00,87.00 L 22.00,89.00 L 21.00,90.00 L 20.00,90.00 L 19.00,89.00 Z M 203.00,86.00 L 204.00,87.00 L 204.00,94.00 L 203.00,95.00 L 202.00,94.00 L 202.00,87.00 Z M 198.00,87.00 L 199.00,86.00 L 200.00,87.00 L 199.00,88.00 Z M 159.00,87.00 L 160.00,86.00 L 161.00,87.00 L 160.00,88.00 Z M 151.00,87.00 L 152.00,86.00 L 154.00,86.00 L 155.00,87.00 L 154.00,88.00 L 152.00,88.00 Z M 145.00,87.00 L 146.00,86.00 L 147.00,87.00 L 146.00,88.00 Z M 140.00,87.00 L 141.00,86.00 L 143.00,88.00 L 142.00,89.00 L 141.00,89.00 L 140.00,88.00 Z M 111.00,87.00 L 112.00,86.00 L 113.00,86.00 L 114.00,87.00 L 113.00,88.00 L 112.00,88.00 Z M 66.00,87.00 L 67.00,86.00 L 68.00,87.00 L 67.00,88.00 Z M 63.00,86.00 L 64.00,87.00 L 64.00,93.00 L 63.00,94.00 L 62.00,93.00 L 62.00,87.00 Z M 51.00,87.00 L 52.00,86.00 L 53.00,87.00 L 53.00,88.00 L 52.00,89.00 L 51.00,88.00 Z M 240.00,85.00 L 241.00,86.00 L 241.00,88.00 L 240.00,89.00 L 239.00,88.00 L 239.00,86.00 Z M 220.00,86.00 L 221.00,85.00 L 222.00,86.00 L 221.00,87.00 Z M 214.00,85.00 L 215.00,86.00 L 215.00,88.00 L 214.00,89.00 L 213.00,88.00 L 213.00,86.00 Z M 197.00,86.00 L 198.00,85.00 L 199.00,86.00 L 198.00,87.00 Z M 160.00,86.00 L 161.00,85.00 L 162.00,86.00 L 161.00,87.00 Z M 154.00,86.00 L 155.00,85.00 L 157.00,85.00 L 158.00,86.00 L 157.00,87.00 L 155.00,87.00 Z M 44.00,86.00 L 45.00,85.00 L 46.00,86.00 L 45.00,87.00 Z M 26.00,85.00 L 27.00,86.00 L 27.00,88.00 L 26.00,89.00 L 25.00,88.00 L 25.00,86.00 Z M 242.00,85.00 L 243.00,84.00 L 244.00,84.00 L 245.00,85.00 L 245.00,86.00 L 244.00,87.00 Z M 240.00,85.00 L 241.00,84.00 L 242.00,85.00 L 241.00,86.00 Z M 211.00,85.00 L 212.00,84.00 L 213.00,85.00 L 213.00,86.00 L 212.00,87.00 L 211.00,86.00 Z M 161.00,85.00 L 162.00,84.00 L 163.00,85.00 L 162.00,86.00 Z M 143.00,85.00 L 144.00,84.00 L 145.00,85.00 L 144.00,86.00 Z M 138.00,85.00 L 139.00,84.00 L 140.00,85.00 L 139.00,86.00 Z M 106.00,84.00 L 107.00,85.00 L 108.00,84.00 L 110.00,87.00 L 110.00,88.00 L 108.00,91.00 L 107.00,90.00 L 107.00,89.00 L 106.00,89.00 L 104.00,87.00 Z M 53.00,85.00 L 54.00,84.00 L 55.00,85.00 L 54.00,86.00 Z M 34.00,85.00 L 35.00,84.00 L 36.00,85.00 L 35.00,86.00 Z M 24.00,85.00 L 25.00,84.00 L 26.00,85.00 L 25.00,86.00 Z M 21.00,86.00 L 21.00,85.00 L 22.00,84.00 L 23.00,84.00 L 24.00,85.00 L 22.00,87.00 Z M 232.00,84.00 L 233.00,83.00 L 234.00,83.00 L 235.00,84.00 L 234.00,85.00 L 233.00,85.00 Z M 221.00,84.00 L 222.00,83.00 L 223.00,84.00 L 222.00,85.00 Z M 154.00,84.00 L 155.00,83.00 L 156.00,84.00 L 155.00,85.00 Z M 151.00,84.00 L 152.00,83.00 L 153.00,84.00 L 152.00,85.00 Z M 112.00,84.00 L 113.00,83.00 L 114.00,84.00 L 113.00,85.00 Z M 32.00,84.00 L 33.00,83.00 L 34.00,84.00 L 33.00,85.00 Z M 247.00,82.00 L 248.00,83.00 L 248.00,88.00 L 245.00,91.00 L 242.00,91.00 L 240.00,89.00 L 241.00,88.00 L 244.00,89.00 L 246.00,87.00 L 246.00,83.00 Z M 235.00,83.00 L 236.00,82.00 L 238.00,82.00 L 239.00,83.00 L 239.00,84.00 L 238.00,85.00 Z M 152.00,83.00 L 153.00,82.00 L 154.00,83.00 L 153.00,84.00 Z M 147.00,83.00 L 148.00,82.00 L 149.00,83.00 L 148.00,84.00 Z M 111.00,82.00 L 112.00,83.00 L 112.00,85.00 L 111.00,86.00 L 110.00,85.00 L 110.00,83.00 Z M 43.00,83.00 L 44.00,82.00 L 45.00,83.00 L 45.00,84.00 L 44.00,85.00 L 43.00,84.00 Z M 19.00,82.00 L 20.00,83.00 L 20.00,87.00 L 19.00,88.00 L 18.00,87.00 L 18.00,83.00 Z M 245.00,82.00 L 246.00,81.00 L 247.00,82.00 L 246.00,83.00 Z M 231.00,82.00 L 232.00,81.00 L 233.00,82.00 L 232.00,83.00 Z M 222.00,82.00 L 223.00,81.00 L 224.00,82.00 L 224.00,83.00 L 223.00,84.00 L 222.00,83.00 Z M 153.00,82.00 L 154.00,81.00 L 155.00,81.00 L 156.00,82.00 L 155.00,83.00 L 154.00,83.00 Z M 104.00,81.00 L 105.00,82.00 L 105.00,85.00 L 104.00,86.00 L 103.00,85.00 L 103.00,82.00 Z M 102.00,81.00 L 103.00,82.00 L 103.00,86.00 L 104.00,87.00 L 104.00,89.00 L 102.00,92.00 L 101.00,91.00 L 101.00,82.00 Z M 93.00,83.00 L 94.00,82.00 L 95.00,83.00 L 95.00,82.00 L 94.00,82.00 L 93.00,83.00 L 93.00,85.00 L 96.00,85.00 L 94.00,85.00 L 93.00,84.00 Z M 42.00,82.00 L 43.00,81.00 L 44.00,82.00 L 43.00,83.00 Z M 34.00,82.00 L 35.00,81.00 L 36.00,82.00 L 35.00,83.00 Z M 19.00,82.00 L 20.00,81.00 L 21.00,82.00 L 20.00,83.00 Z M 244.00,81.00 L 245.00,80.00 L 246.00,81.00 L 245.00,82.00 Z M 232.00,81.00 L 233.00,80.00 L 234.00,80.00 L 235.00,81.00 L 234.00,82.00 L 233.00,82.00 Z M 155.00,81.00 L 156.00,80.00 L 158.00,80.00 L 159.00,81.00 L 158.00,82.00 L 156.00,82.00 Z M 146.00,81.00 L 147.00,80.00 L 148.00,81.00 L 147.00,82.00 Z M 137.00,80.00 L 138.00,81.00 L 138.00,82.00 L 136.00,84.00 L 136.00,85.00 L 132.00,89.00 L 130.00,87.00 L 130.00,84.00 L 132.00,82.00 L 133.00,82.00 L 134.00,81.00 Z M 130.00,81.00 L 131.00,80.00 L 132.00,81.00 L 131.00,82.00 Z M 108.00,83.00 L 108.00,81.00 L 109.00,80.00 L 111.00,80.00 L 112.00,81.00 L 111.00,82.00 L 110.00,82.00 L 110.00,83.00 L 109.00,84.00 Z M 107.00,80.00 L 108.00,81.00 L 108.00,83.00 L 107.00,84.00 L 106.00,83.00 L 106.00,81.00 Z M 32.00,81.00 L 33.00,80.00 L 34.00,81.00 L 33.00,82.00 Z M 20.00,81.00 L 21.00,80.00 L 22.00,81.00 L 21.00,82.00 Z M 241.00,80.00 L 242.00,79.00 L 244.00,79.00 L 245.00,80.00 L 244.00,81.00 L 242.00,81.00 Z M 235.00,80.00 L 236.00,79.00 L 237.00,79.00 L 238.00,80.00 L 237.00,81.00 L 236.00,81.00 Z M 223.00,80.00 L 224.00,79.00 L 225.00,80.00 L 225.00,81.00 L 224.00,82.00 L 223.00,81.00 Z M 145.00,80.00 L 146.00,79.00 L 147.00,80.00 L 146.00,81.00 Z M 131.00,80.00 L 132.00,79.00 L 133.00,80.00 L 132.00,81.00 Z M 104.00,80.00 L 105.00,79.00 L 106.00,80.00 L 105.00,81.00 Z M 102.00,80.00 L 103.00,79.00 L 104.00,80.00 L 103.00,81.00 Z M 41.00,80.00 L 42.00,79.00 L 43.00,80.00 L 43.00,81.00 L 42.00,82.00 L 41.00,81.00 Z M 29.00,80.00 L 30.00,79.00 L 31.00,79.00 L 32.00,80.00 L 31.00,81.00 L 30.00,81.00 Z M 22.00,80.00 L 23.00,79.00 L 24.00,79.00 L 25.00,80.00 L 24.00,81.00 L 23.00,81.00 Z M 224.00,79.00 L 225.00,78.00 L 226.00,79.00 L 225.00,80.00 Z M 162.00,79.00 L 163.00,78.00 L 164.00,79.00 L 163.00,80.00 Z M 153.00,80.00 L 155.00,78.00 L 158.00,78.00 L 159.00,79.00 L 158.00,80.00 L 156.00,80.00 L 155.00,81.00 L 154.00,81.00 Z M 151.00,78.00 L 152.00,79.00 L 152.00,82.00 L 151.00,83.00 L 150.00,83.00 L 149.00,82.00 L 150.00,81.00 L 150.00,79.00 Z M 140.00,79.00 L 141.00,78.00 L 142.00,79.00 L 141.00,80.00 Z M 105.00,79.00 L 106.00,78.00 L 107.00,79.00 L 106.00,80.00 Z M 161.00,77.00 L 162.00,78.00 L 162.00,83.00 L 159.00,86.00 L 158.00,86.00 L 157.00,85.00 L 159.00,83.00 L 159.00,82.00 L 160.00,81.00 L 159.00,78.00 L 160.00,77.00 Z M 142.00,78.00 L 143.00,77.00 L 144.00,78.00 L 143.00,79.00 Z M 139.00,78.00 L 140.00,77.00 L 141.00,78.00 L 140.00,79.00 Z M 113.00,78.00 L 114.00,77.00 L 115.00,78.00 L 114.00,79.00 Z M 107.00,78.00 L 108.00,77.00 L 110.00,77.00 L 111.00,78.00 L 110.00,79.00 L 108.00,79.00 Z M 102.00,78.00 L 103.00,77.00 L 104.00,78.00 L 103.00,79.00 Z M 225.00,77.00 L 226.00,76.00 L 227.00,77.00 L 227.00,78.00 L 226.00,79.00 L 225.00,78.00 Z M 207.00,76.00 L 208.00,77.00 L 208.00,79.00 L 209.00,80.00 L 209.00,88.00 L 207.00,90.00 L 206.00,89.00 L 206.00,77.00 Z M 161.00,77.00 L 162.00,76.00 L 163.00,77.00 L 162.00,78.00 Z M 149.00,77.00 L 150.00,76.00 L 154.00,76.00 L 155.00,77.00 L 154.00,78.00 L 150.00,78.00 Z M 141.00,77.00 L 142.00,76.00 L 143.00,77.00 L 142.00,78.00 Z M 136.00,77.00 L 137.00,76.00 L 138.00,77.00 L 137.00,78.00 Z M 110.00,77.00 L 111.00,76.00 L 112.00,76.00 L 113.00,77.00 L 112.00,78.00 L 111.00,78.00 Z M 88.00,77.00 L 89.00,76.00 L 90.00,77.00 L 90.00,78.00 L 89.00,79.00 L 88.00,78.00 Z M 59.00,76.00 L 60.00,77.00 L 60.00,89.00 L 59.00,90.00 L 57.00,88.00 L 57.00,80.00 L 58.00,79.00 L 58.00,77.00 Z M 39.00,77.00 L 40.00,76.00 L 42.00,78.00 L 42.00,79.00 L 41.00,80.00 L 39.00,78.00 Z M 226.00,76.00 L 227.00,75.00 L 228.00,76.00 L 227.00,77.00 Z M 213.00,75.00 L 214.00,76.00 L 214.00,81.00 L 213.00,82.00 L 212.00,81.00 L 212.00,76.00 Z M 145.00,76.00 L 146.00,75.00 L 147.00,76.00 L 146.00,77.00 Z M 59.00,76.00 L 60.00,75.00 L 61.00,76.00 L 60.00,77.00 Z M 53.00,75.00 L 54.00,76.00 L 54.00,81.00 L 53.00,82.00 L 52.00,81.00 L 52.00,76.00 Z M 38.00,76.00 L 39.00,75.00 L 40.00,76.00 L 39.00,77.00 Z M 227.00,75.00 L 228.00,74.00 L 229.00,75.00 L 228.00,76.00 Z M 158.00,75.00 L 159.00,74.00 L 160.00,75.00 L 159.00,76.00 Z M 155.00,75.00 L 156.00,74.00 L 157.00,75.00 L 156.00,76.00 Z M 152.00,75.00 L 153.00,74.00 L 154.00,75.00 L 153.00,76.00 Z M 143.00,75.00 L 144.00,74.00 L 145.00,75.00 L 144.00,76.00 Z M 108.00,75.00 L 109.00,74.00 L 112.00,74.00 L 113.00,75.00 L 112.00,76.00 L 109.00,76.00 Z M 159.00,74.00 L 160.00,73.00 L 161.00,74.00 L 160.00,75.00 Z M 147.00,74.00 L 148.00,73.00 L 149.00,74.00 L 148.00,75.00 Z M 141.00,74.00 L 142.00,73.00 L 143.00,74.00 L 142.00,75.00 Z M 105.00,73.00 L 106.00,73.00 L 107.00,74.00 L 106.00,75.00 L 107.00,76.00 L 107.00,77.00 L 106.00,78.00 L 105.00,78.00 L 103.00,76.00 L 103.00,75.00 Z M 37.00,74.00 L 38.00,73.00 L 39.00,74.00 L 39.00,75.00 L 38.00,76.00 L 37.00,75.00 Z M 155.00,73.00 L 156.00,72.00 L 157.00,73.00 L 156.00,74.00 Z M 144.00,73.00 L 145.00,72.00 L 147.00,72.00 L 148.00,73.00 L 147.00,74.00 L 145.00,74.00 Z M 140.00,73.00 L 141.00,72.00 L 142.00,73.00 L 141.00,74.00 Z M 112.00,73.00 L 113.00,72.00 L 114.00,73.00 L 113.00,74.00 Z M 36.00,73.00 L 37.00,72.00 L 38.00,73.00 L 37.00,74.00 Z M 211.00,72.00 L 212.00,71.00 L 213.00,72.00 L 212.00,73.00 Z M 148.00,72.00 L 149.00,71.00 L 150.00,72.00 L 150.00,73.00 L 149.00,74.00 L 148.00,73.00 Z M 139.00,72.00 L 140.00,71.00 L 141.00,72.00 L 140.00,73.00 Z M 53.00,72.00 L 54.00,71.00 L 55.00,72.00 L 55.00,73.00 L 54.00,74.00 L 53.00,73.00 Z M 35.00,72.00 L 36.00,71.00 L 37.00,72.00 L 36.00,73.00 Z M 155.00,71.00 L 156.00,70.00 L 157.00,71.00 L 156.00,72.00 Z M 154.00,70.00 L 155.00,71.00 L 155.00,73.00 L 156.00,74.00 L 155.00,75.00 L 154.00,75.00 L 153.00,74.00 L 153.00,71.00 Z M 150.00,71.00 L 151.00,70.00 L 152.00,71.00 L 151.00,72.00 Z M 144.00,71.00 L 145.00,70.00 L 146.00,71.00 L 145.00,72.00 Z M 138.00,71.00 L 139.00,70.00 L 140.00,71.00 L 139.00,72.00 Z M 116.00,71.00 L 117.00,70.00 L 118.00,71.00 L 117.00,72.00 Z M 113.00,71.00 L 114.00,70.00 L 115.00,71.00 L 114.00,72.00 Z M 90.00,71.00 L 91.00,70.00 L 92.00,71.00 L 91.00,72.00 Z M 157.00,70.00 L 158.00,69.00 L 159.00,70.00 L 158.00,71.00 Z M 149.00,70.00 L 150.00,69.00 L 151.00,70.00 L 150.00,71.00 Z M 142.00,70.00 L 143.00,69.00 L 144.00,70.00 L 143.00,71.00 Z M 140.00,70.00 L 141.00,69.00 L 142.00,70.00 L 141.00,71.00 Z M 111.00,69.00 L 112.00,70.00 L 112.00,71.00 L 111.00,72.00 L 112.00,73.00 L 111.00,74.00 L 109.00,74.00 L 108.00,75.00 L 107.00,74.00 L 107.00,72.00 L 108.00,71.00 L 109.00,71.00 L 109.00,70.00 L 110.00,69.00 Z M 106.00,70.00 L 107.00,69.00 L 108.00,70.00 L 108.00,71.00 L 107.00,72.00 L 106.00,71.00 Z M 210.00,69.00 L 211.00,68.00 L 212.00,69.00 L 211.00,70.00 Z M 200.00,69.00 L 201.00,68.00 L 205.00,68.00 L 206.00,69.00 L 206.00,70.00 L 205.00,71.00 L 204.00,71.00 L 203.00,70.00 L 201.00,70.00 Z M 151.00,69.00 L 152.00,68.00 L 153.00,68.00 L 154.00,69.00 L 154.00,70.00 L 153.00,71.00 Z M 145.00,69.00 L 146.00,68.00 L 147.00,69.00 L 147.00,70.00 L 146.00,71.00 L 145.00,70.00 Z M 59.00,70.00 L 61.00,68.00 L 65.00,68.00 L 66.00,69.00 L 63.00,71.00 L 60.00,71.00 Z M 54.00,69.00 L 55.00,68.00 L 56.00,69.00 L 56.00,70.00 L 55.00,71.00 L 54.00,70.00 Z M 173.00,68.00 L 174.00,67.00 L 175.00,68.00 L 174.00,69.00 Z M 153.00,68.00 L 154.00,67.00 L 155.00,68.00 L 154.00,69.00 Z M 148.00,68.00 L 149.00,67.00 L 150.00,67.00 L 151.00,68.00 L 150.00,69.00 L 149.00,69.00 Z M 127.00,68.00 L 128.00,67.00 L 129.00,68.00 L 128.00,69.00 Z M 111.00,68.00 L 112.00,67.00 L 113.00,68.00 L 112.00,69.00 Z M 108.00,68.00 L 109.00,67.00 L 110.00,68.00 L 109.00,69.00 Z M 91.00,68.00 L 92.00,67.00 L 93.00,68.00 L 92.00,69.00 Z M 55.00,68.00 L 56.00,67.00 L 57.00,68.00 L 56.00,69.00 Z M 209.00,67.00 L 210.00,66.00 L 211.00,67.00 L 211.00,68.00 L 210.00,69.00 L 209.00,68.00 Z M 141.00,67.00 L 142.00,66.00 L 143.00,67.00 L 142.00,68.00 Z M 125.00,67.00 L 126.00,66.00 L 127.00,67.00 L 126.00,68.00 Z M 118.00,67.00 L 119.00,66.00 L 120.00,67.00 L 120.00,68.00 L 119.00,69.00 L 118.00,68.00 Z M 115.00,67.00 L 116.00,66.00 L 117.00,67.00 L 117.00,68.00 L 116.00,69.00 L 115.00,68.00 Z M 100.00,67.00 L 99.00,67.00 L 100.00,68.00 L 99.00,69.00 L 97.00,69.00 L 99.00,71.00 L 98.00,70.00 L 101.00,68.00 Z M 208.00,66.00 L 209.00,65.00 L 210.00,66.00 L 209.00,67.00 Z M 172.00,66.00 L 173.00,65.00 L 174.00,66.00 L 173.00,67.00 Z M 148.00,66.00 L 149.00,65.00 L 150.00,65.00 L 151.00,66.00 L 150.00,67.00 L 149.00,67.00 Z M 140.00,65.00 L 141.00,66.00 L 141.00,69.00 L 140.00,70.00 L 139.00,69.00 L 138.00,70.00 L 137.00,69.00 L 137.00,68.00 Z M 131.00,66.00 L 132.00,65.00 L 133.00,66.00 L 132.00,67.00 Z M 128.00,66.00 L 129.00,65.00 L 130.00,66.00 L 130.00,67.00 L 129.00,68.00 L 128.00,67.00 Z M 56.00,66.00 L 57.00,65.00 L 58.00,66.00 L 57.00,67.00 Z M 207.00,65.00 L 208.00,64.00 L 209.00,65.00 L 208.00,66.00 Z M 153.00,64.00 L 154.00,65.00 L 154.00,66.00 L 152.00,68.00 L 151.00,68.00 L 150.00,67.00 Z M 126.00,65.00 L 127.00,64.00 L 128.00,65.00 L 128.00,66.00 L 127.00,67.00 L 126.00,66.00 Z M 118.00,64.00 L 120.00,64.00 L 122.00,66.00 L 123.00,65.00 L 124.00,65.00 L 125.00,66.00 L 125.00,67.00 L 126.00,68.00 L 123.00,70.00 L 125.00,73.00 L 125.00,75.00 L 126.00,75.00 L 126.00,74.00 L 131.00,69.00 L 136.00,72.00 L 136.00,75.00 L 135.00,76.00 L 134.00,76.00 L 133.00,75.00 L 132.00,76.00 L 132.00,77.00 L 129.00,80.00 L 127.00,80.00 L 129.00,80.00 L 131.00,82.00 L 129.00,85.00 L 130.00,86.00 L 130.00,89.00 L 131.00,90.00 L 131.00,92.00 L 132.00,92.00 L 133.00,93.00 L 131.00,95.00 L 132.00,95.00 L 133.00,96.00 L 132.00,97.00 L 133.00,97.00 L 135.00,95.00 L 135.00,94.00 L 136.00,93.00 L 137.00,94.00 L 137.00,96.00 L 134.00,99.00 L 132.00,99.00 L 131.00,100.00 L 127.00,100.00 L 124.00,98.00 L 124.00,97.00 L 125.00,96.00 L 126.00,96.00 L 129.00,93.00 L 128.00,92.00 L 127.00,92.00 L 124.00,95.00 L 119.00,95.00 L 118.00,96.00 L 115.00,93.00 L 114.00,93.00 L 115.00,94.00 L 115.00,95.00 L 114.00,96.00 L 111.00,93.00 L 111.00,91.00 L 113.00,89.00 L 116.00,89.00 L 117.00,90.00 L 118.00,90.00 L 118.00,88.00 L 117.00,88.00 L 116.00,87.00 L 114.00,87.00 L 113.00,86.00 L 114.00,85.00 L 115.00,85.00 L 115.00,84.00 L 116.00,83.00 L 118.00,85.00 L 118.00,86.00 L 118.00,83.00 L 114.00,79.00 L 115.00,78.00 L 115.00,73.00 L 116.00,72.00 L 117.00,73.00 L 117.00,77.00 L 118.00,78.00 L 118.00,79.00 L 120.00,81.00 L 120.00,85.00 L 121.00,84.00 L 121.00,80.00 L 122.00,79.00 L 123.00,79.00 L 123.00,78.00 L 122.00,79.00 L 120.00,77.00 L 118.00,77.00 L 117.00,76.00 L 117.00,74.00 L 120.00,71.00 L 120.00,70.00 L 121.00,69.00 L 121.00,68.00 L 119.00,66.00 L 118.00,66.00 L 117.00,65.00 Z M 110.00,65.00 L 111.00,64.00 L 112.00,65.00 L 111.00,66.00 Z M 175.00,63.00 L 178.00,65.00 L 181.00,65.00 L 182.00,64.00 L 184.00,64.00 L 185.00,63.00 L 186.00,63.00 L 187.00,64.00 L 186.00,65.00 L 188.00,67.00 L 190.00,67.00 L 193.00,65.00 L 194.00,66.00 L 194.00,69.00 L 195.00,70.00 L 198.00,70.00 L 199.00,69.00 L 200.00,69.00 L 201.00,70.00 L 200.00,71.00 L 200.00,73.00 L 201.00,74.00 L 206.00,74.00 L 207.00,75.00 L 207.00,76.00 L 206.00,77.00 L 205.00,76.00 L 203.00,76.00 L 202.00,77.00 L 198.00,77.00 L 196.00,75.00 L 195.00,75.00 L 194.00,74.00 L 193.00,74.00 L 190.00,76.00 L 190.00,78.00 L 191.00,79.00 L 192.00,79.00 L 194.00,81.00 L 192.00,83.00 L 193.00,84.00 L 197.00,84.00 L 198.00,85.00 L 196.00,87.00 L 197.00,88.00 L 197.00,93.00 L 196.00,94.00 L 196.00,95.00 L 190.00,101.00 L 189.00,101.00 L 188.00,102.00 L 186.00,102.00 L 185.00,103.00 L 178.00,103.00 L 177.00,102.00 L 177.00,100.00 L 178.00,99.00 L 178.00,96.00 L 179.00,95.00 L 179.00,77.00 L 178.00,76.00 L 178.00,74.00 L 177.00,73.00 L 177.00,71.00 L 176.00,70.00 L 176.00,68.00 L 174.00,65.00 L 174.00,64.00 Z M 171.00,64.00 L 172.00,63.00 L 173.00,64.00 L 172.00,65.00 Z M 150.00,64.00 L 151.00,63.00 L 152.00,64.00 L 151.00,65.00 Z M 136.00,64.00 L 137.00,63.00 L 138.00,64.00 L 137.00,65.00 Z M 114.00,64.00 L 115.00,63.00 L 117.00,63.00 L 118.00,64.00 L 117.00,65.00 L 115.00,65.00 Z M 108.00,64.00 L 109.00,63.00 L 110.00,64.00 L 109.00,65.00 Z M 60.00,63.00 L 61.00,64.00 L 59.00,66.00 L 58.00,66.00 L 57.00,65.00 L 59.00,63.00 Z M 204.00,63.00 L 205.00,62.00 L 206.00,62.00 L 208.00,64.00 L 207.00,65.00 L 206.00,65.00 Z M 193.00,64.00 L 195.00,62.00 L 199.00,62.00 L 201.00,64.00 L 201.00,65.00 L 200.00,66.00 L 199.00,66.00 L 198.00,65.00 L 195.00,65.00 L 194.00,66.00 L 193.00,65.00 Z M 186.00,63.00 L 187.00,62.00 L 191.00,62.00 L 192.00,63.00 L 190.00,65.00 L 189.00,65.00 Z M 66.00,63.00 L 67.00,63.00 L 68.00,62.00 L 70.00,62.00 L 71.00,63.00 L 72.00,63.00 L 74.00,65.00 L 74.00,66.00 L 75.00,66.00 L 76.00,67.00 L 79.00,67.00 L 80.00,66.00 L 80.00,65.00 L 76.00,65.00 L 75.00,64.00 L 75.00,63.00 L 76.00,62.00 L 79.00,62.00 L 80.00,63.00 L 81.00,63.00 L 82.00,64.00 L 84.00,64.00 L 85.00,65.00 L 88.00,65.00 L 91.00,63.00 L 92.00,64.00 L 92.00,65.00 L 89.00,70.00 L 89.00,72.00 L 88.00,73.00 L 88.00,76.00 L 87.00,77.00 L 87.00,83.00 L 86.00,84.00 L 86.00,85.00 L 87.00,86.00 L 87.00,96.00 L 88.00,97.00 L 88.00,100.00 L 89.00,101.00 L 89.00,102.00 L 88.00,103.00 L 82.00,103.00 L 81.00,102.00 L 78.00,102.00 L 77.00,101.00 L 76.00,101.00 L 70.00,95.00 L 70.00,94.00 L 69.00,93.00 L 69.00,87.00 L 68.00,87.00 L 67.00,86.00 L 69.00,84.00 L 74.00,84.00 L 74.00,83.00 L 72.00,81.00 L 74.00,79.00 L 75.00,79.00 L 76.00,78.00 L 76.00,76.00 L 75.00,75.00 L 71.00,75.00 L 70.00,76.00 L 69.00,76.00 L 68.00,77.00 L 65.00,78.00 L 63.00,76.00 L 61.00,76.00 L 60.00,75.00 L 61.00,74.00 L 65.00,74.00 L 66.00,73.00 L 66.00,71.00 L 65.00,70.00 L 66.00,69.00 L 67.00,69.00 L 70.00,71.00 L 71.00,70.00 L 72.00,70.00 L 72.00,66.00 L 71.00,65.00 L 69.00,65.00 L 68.00,66.00 L 67.00,66.00 L 65.00,64.00 Z M 60.00,63.00 L 61.00,62.00 L 62.00,63.00 L 61.00,64.00 Z M 202.00,62.00 L 203.00,61.00 L 204.00,61.00 L 205.00,62.00 L 204.00,63.00 L 203.00,63.00 Z M 173.00,62.00 L 174.00,61.00 L 175.00,62.00 L 175.00,63.00 L 174.00,64.00 L 173.00,63.00 Z M 154.00,62.00 L 155.00,61.00 L 156.00,62.00 L 155.00,63.00 Z M 150.00,62.00 L 151.00,61.00 L 152.00,62.00 L 151.00,63.00 Z M 137.00,63.00 L 140.00,61.00 L 142.00,61.00 L 143.00,62.00 L 144.00,62.00 L 147.00,65.00 L 147.00,67.00 L 146.00,68.00 L 145.00,67.00 L 145.00,66.00 L 143.00,64.00 L 138.00,64.00 Z M 135.00,62.00 L 136.00,61.00 L 137.00,62.00 L 136.00,63.00 Z M 130.00,61.00 L 131.00,62.00 L 131.00,65.00 L 130.00,66.00 L 129.00,65.00 L 129.00,62.00 Z M 126.00,62.00 L 127.00,61.00 L 128.00,62.00 L 127.00,63.00 Z M 91.00,62.00 L 92.00,61.00 L 93.00,62.00 L 93.00,63.00 L 92.00,64.00 L 91.00,63.00 Z M 61.00,62.00 L 62.00,61.00 L 63.00,61.00 L 64.00,62.00 L 63.00,63.00 L 62.00,63.00 Z M 199.00,61.00 L 200.00,60.00 L 202.00,60.00 L 203.00,61.00 L 202.00,62.00 L 200.00,62.00 Z M 169.00,61.00 L 170.00,60.00 L 171.00,61.00 L 170.00,62.00 Z M 148.00,61.00 L 149.00,60.00 L 150.00,61.00 L 149.00,62.00 Z M 136.00,61.00 L 137.00,60.00 L 138.00,61.00 L 137.00,62.00 Z M 124.00,61.00 L 125.00,60.00 L 126.00,60.00 L 127.00,61.00 L 126.00,62.00 L 125.00,62.00 Z M 121.00,61.00 L 122.00,60.00 L 123.00,61.00 L 123.00,62.00 L 122.00,63.00 L 121.00,62.00 Z M 118.00,61.00 L 119.00,60.00 L 120.00,60.00 L 121.00,61.00 L 120.00,62.00 L 119.00,62.00 Z M 95.00,61.00 L 96.00,60.00 L 97.00,61.00 L 96.00,62.00 Z M 63.00,61.00 L 64.00,60.00 L 66.00,60.00 L 67.00,61.00 L 66.00,62.00 L 64.00,62.00 Z M 175.00,60.00 L 176.00,59.00 L 177.00,59.00 L 178.00,60.00 L 178.00,61.00 L 179.00,61.00 L 180.00,62.00 L 184.00,62.00 L 185.00,63.00 L 184.00,64.00 L 178.00,64.00 L 175.00,61.00 Z M 145.00,60.00 L 146.00,59.00 L 147.00,59.00 L 148.00,60.00 L 147.00,61.00 L 146.00,61.00 Z M 138.00,60.00 L 139.00,59.00 L 140.00,59.00 L 141.00,60.00 L 140.00,61.00 L 139.00,61.00 Z M 134.00,60.00 L 135.00,59.00 L 136.00,60.00 L 135.00,61.00 Z M 128.00,60.00 L 129.00,59.00 L 130.00,60.00 L 130.00,61.00 L 129.00,62.00 L 128.00,61.00 Z M 117.00,60.00 L 118.00,59.00 L 119.00,60.00 L 118.00,61.00 Z M 91.00,60.00 L 91.00,61.00 L 88.00,64.00 L 83.00,64.00 L 82.00,63.00 L 83.00,62.00 L 86.00,62.00 L 87.00,61.00 L 88.00,61.00 L 88.00,60.00 L 89.00,59.00 L 90.00,59.00 Z M 135.00,59.00 L 136.00,58.00 L 137.00,59.00 L 136.00,60.00 Z M 122.00,60.00 L 122.00,59.00 L 123.00,58.00 L 125.00,58.00 L 126.00,59.00 L 123.00,61.00 Z M 162.00,58.00 L 161.00,59.00 L 160.00,59.00 L 160.00,60.00 L 161.00,61.00 L 162.00,61.00 L 163.00,60.00 L 162.00,61.00 L 161.00,61.00 L 160.00,60.00 Z M 136.00,58.00 L 137.00,57.00 L 138.00,57.00 L 139.00,58.00 L 138.00,59.00 L 137.00,59.00 Z M 131.00,57.00 L 133.00,59.00 L 133.00,60.00 L 134.00,61.00 L 134.00,65.00 L 133.00,66.00 L 132.00,65.00 L 132.00,62.00 L 130.00,59.00 L 130.00,58.00 Z M 127.00,58.00 L 128.00,57.00 L 129.00,58.00 L 129.00,59.00 L 128.00,60.00 L 127.00,59.00 Z M 120.00,59.00 L 120.00,58.00 L 121.00,57.00 L 122.00,57.00 L 123.00,58.00 L 121.00,60.00 Z M 166.00,57.00 L 167.00,56.00 L 168.00,57.00 L 167.00,58.00 Z M 138.00,57.00 L 139.00,56.00 L 142.00,56.00 L 143.00,57.00 L 142.00,58.00 L 139.00,58.00 Z M 129.00,57.00 L 130.00,56.00 L 131.00,57.00 L 130.00,58.00 Z M 135.00,55.00 L 136.00,56.00 L 136.00,58.00 L 135.00,59.00 L 134.00,58.00 L 134.00,56.00 Z M 131.00,56.00 L 132.00,55.00 L 133.00,56.00 L 132.00,57.00 Z M 120.00,56.00 L 121.00,55.00 L 122.00,56.00 L 121.00,57.00 Z M 99.00,56.00 L 100.00,55.00 L 101.00,56.00 L 100.00,57.00 Z M 100.00,55.00 L 101.00,54.00 L 102.00,55.00 L 101.00,56.00 Z M 163.00,54.00 L 164.00,53.00 L 165.00,54.00 L 164.00,55.00 Z M 129.00,54.00 L 130.00,53.00 L 131.00,54.00 L 130.00,55.00 Z M 101.00,54.00 L 102.00,53.00 L 103.00,54.00 L 102.00,55.00 Z M 162.00,53.00 L 163.00,52.00 L 164.00,53.00 L 163.00,54.00 Z M 129.00,53.00 L 128.00,54.00 L 125.00,54.00 L 125.00,55.00 L 124.00,56.00 L 123.00,55.00 L 121.00,55.00 L 120.00,56.00 L 119.00,56.00 L 118.00,57.00 L 115.00,58.00 L 112.00,61.00 L 111.00,61.00 L 106.00,66.00 L 106.00,67.00 L 104.00,69.00 L 104.00,70.00 L 101.00,75.00 L 101.00,77.00 L 100.00,78.00 L 100.00,82.00 L 99.00,83.00 L 99.00,91.00 L 100.00,92.00 L 100.00,96.00 L 101.00,97.00 L 101.00,99.00 L 102.00,100.00 L 102.00,101.00 L 103.00,102.00 L 104.00,105.00 L 110.00,112.00 L 111.00,112.00 L 114.00,115.00 L 115.00,115.00 L 117.00,117.00 L 118.00,117.00 L 119.00,118.00 L 121.00,118.00 L 122.00,119.00 L 124.00,119.00 L 125.00,120.00 L 130.00,120.00 L 131.00,121.00 L 135.00,121.00 L 136.00,120.00 L 141.00,120.00 L 142.00,119.00 L 145.00,119.00 L 146.00,118.00 L 147.00,118.00 L 148.00,117.00 L 151.00,116.00 L 154.00,113.00 L 155.00,113.00 L 159.00,109.00 L 159.00,108.00 L 162.00,105.00 L 162.00,104.00 L 164.00,101.00 L 164.00,99.00 L 165.00,98.00 L 165.00,96.00 L 166.00,95.00 L 166.00,90.00 L 167.00,89.00 L 167.00,83.00 L 166.00,82.00 L 166.00,78.00 L 165.00,77.00 L 165.00,75.00 L 164.00,74.00 L 164.00,73.00 L 163.00,72.00 L 162.00,69.00 L 160.00,67.00 L 160.00,66.00 L 155.00,61.00 L 154.00,61.00 L 151.00,58.00 L 150.00,58.00 L 145.00,55.00 L 143.00,55.00 L 142.00,54.00 L 138.00,54.00 L 137.00,53.00 Z M 161.00,52.00 L 162.00,51.00 L 163.00,52.00 L 162.00,53.00 Z M 162.00,50.00 L 163.00,49.00 L 165.00,49.00 L 166.00,50.00 L 166.00,52.00 L 165.00,53.00 Z M 106.00,50.00 L 107.00,49.00 L 108.00,50.00 L 107.00,51.00 Z M 99.00,52.00 L 101.00,49.00 L 103.00,49.00 L 104.00,50.00 L 101.00,53.00 L 100.00,53.00 Z M 157.00,49.00 L 158.00,48.00 L 159.00,49.00 L 158.00,50.00 Z M 107.00,49.00 L 108.00,48.00 L 109.00,49.00 L 108.00,50.00 Z M 155.00,48.00 L 156.00,47.00 L 157.00,48.00 L 156.00,49.00 Z M 109.00,48.00 L 110.00,47.00 L 111.00,48.00 L 110.00,49.00 Z M 158.00,47.00 L 159.00,46.00 L 163.00,46.00 L 164.00,47.00 L 163.00,48.00 L 159.00,48.00 Z M 153.00,47.00 L 154.00,46.00 L 155.00,47.00 L 154.00,48.00 Z M 111.00,47.00 L 112.00,46.00 L 113.00,47.00 L 112.00,48.00 Z M 157.00,46.00 L 158.00,45.00 L 159.00,46.00 L 158.00,47.00 Z M 152.00,46.00 L 153.00,45.00 L 154.00,46.00 L 153.00,47.00 Z M 137.00,46.00 L 138.00,47.00 L 137.00,48.00 L 136.00,48.00 L 136.00,49.00 L 137.00,48.00 L 138.00,49.00 L 138.00,47.00 Z M 113.00,46.00 L 114.00,45.00 L 115.00,46.00 L 114.00,47.00 Z M 101.00,47.00 L 104.00,45.00 L 105.00,45.00 L 107.00,47.00 L 106.00,48.00 L 102.00,48.00 Z M 163.00,45.00 L 164.00,44.00 L 165.00,45.00 L 164.00,46.00 Z M 115.00,45.00 L 116.00,44.00 L 117.00,45.00 L 116.00,46.00 Z M 175.00,44.00 L 176.00,43.00 L 178.00,43.00 L 179.00,44.00 L 178.00,45.00 L 176.00,45.00 Z M 176.00,45.00 L 175.00,46.00 L 172.00,46.00 L 171.00,47.00 L 165.00,47.00 L 164.00,46.00 L 165.00,45.00 L 168.00,45.00 L 169.00,44.00 L 171.00,44.00 L 172.00,43.00 L 173.00,44.00 L 175.00,44.00 Z M 166.00,44.00 L 167.00,43.00 L 168.00,44.00 L 167.00,45.00 Z M 154.00,44.00 L 155.00,43.00 L 157.00,43.00 L 158.00,44.00 L 157.00,45.00 L 155.00,45.00 Z M 147.00,44.00 L 148.00,43.00 L 149.00,44.00 L 148.00,45.00 Z M 118.00,44.00 L 119.00,43.00 L 120.00,44.00 L 119.00,45.00 Z M 108.00,44.00 L 109.00,43.00 L 111.00,43.00 L 112.00,44.00 L 111.00,45.00 L 109.00,45.00 Z M 97.00,44.00 L 98.00,43.00 L 99.00,44.00 L 98.00,45.00 Z M 91.00,45.00 L 94.00,43.00 L 97.00,45.00 L 100.00,45.00 L 101.00,44.00 L 102.00,44.00 L 103.00,45.00 L 101.00,47.00 L 95.00,47.00 L 94.00,46.00 L 92.00,46.00 Z M 88.00,44.00 L 89.00,43.00 L 90.00,43.00 L 91.00,44.00 L 90.00,45.00 L 89.00,45.00 Z M 179.00,43.00 L 180.00,42.00 L 181.00,43.00 L 180.00,44.00 Z M 173.00,43.00 L 174.00,42.00 L 175.00,43.00 L 174.00,44.00 Z M 169.00,43.00 L 170.00,42.00 L 171.00,43.00 L 170.00,44.00 Z M 143.00,43.00 L 144.00,42.00 L 145.00,42.00 L 146.00,43.00 L 145.00,44.00 L 144.00,44.00 Z M 131.00,42.00 L 135.00,42.00 L 136.00,43.00 L 143.00,43.00 L 144.00,44.00 L 146.00,44.00 L 147.00,45.00 L 149.00,45.00 L 150.00,46.00 L 151.00,46.00 L 152.00,47.00 L 153.00,47.00 L 154.00,48.00 L 157.00,49.00 L 160.00,52.00 L 161.00,52.00 L 167.00,58.00 L 167.00,59.00 L 170.00,62.00 L 171.00,65.00 L 173.00,67.00 L 173.00,68.00 L 174.00,69.00 L 174.00,71.00 L 175.00,72.00 L 175.00,74.00 L 176.00,75.00 L 176.00,80.00 L 177.00,81.00 L 177.00,93.00 L 176.00,94.00 L 176.00,97.00 L 175.00,98.00 L 175.00,101.00 L 174.00,102.00 L 174.00,103.00 L 173.00,104.00 L 173.00,105.00 L 172.00,106.00 L 172.00,107.00 L 171.00,108.00 L 170.00,111.00 L 165.00,116.00 L 165.00,117.00 L 163.00,119.00 L 162.00,119.00 L 158.00,123.00 L 157.00,123.00 L 155.00,125.00 L 154.00,125.00 L 149.00,128.00 L 147.00,128.00 L 146.00,129.00 L 143.00,129.00 L 142.00,130.00 L 135.00,130.00 L 134.00,131.00 L 132.00,131.00 L 131.00,130.00 L 124.00,130.00 L 123.00,129.00 L 121.00,129.00 L 120.00,128.00 L 118.00,128.00 L 117.00,127.00 L 115.00,127.00 L 114.00,126.00 L 113.00,126.00 L 112.00,125.00 L 109.00,124.00 L 105.00,120.00 L 104.00,120.00 L 96.00,111.00 L 96.00,110.00 L 95.00,109.00 L 95.00,108.00 L 92.00,103.00 L 92.00,101.00 L 91.00,100.00 L 91.00,98.00 L 90.00,97.00 L 90.00,94.00 L 89.00,93.00 L 89.00,79.00 L 90.00,78.00 L 90.00,75.00 L 91.00,74.00 L 91.00,72.00 L 92.00,71.00 L 92.00,69.00 L 94.00,67.00 L 94.00,66.00 L 95.00,65.00 L 96.00,62.00 L 100.00,58.00 L 100.00,57.00 L 109.00,49.00 L 110.00,49.00 L 111.00,48.00 L 112.00,48.00 L 117.00,45.00 L 119.00,45.00 L 120.00,44.00 L 122.00,44.00 L 123.00,43.00 L 130.00,43.00 Z M 121.00,43.00 L 122.00,42.00 L 123.00,43.00 L 122.00,44.00 Z M 94.00,43.00 L 95.00,42.00 L 96.00,43.00 L 95.00,44.00 Z M 85.00,43.00 L 86.00,42.00 L 87.00,43.00 L 86.00,44.00 Z M 184.00,42.00 L 185.00,41.00 L 186.00,42.00 L 185.00,43.00 Z M 171.00,42.00 L 172.00,41.00 L 173.00,42.00 L 172.00,43.00 Z M 165.00,42.00 L 166.00,41.00 L 167.00,42.00 L 166.00,43.00 Z M 163.00,42.00 L 163.00,43.00 L 162.00,44.00 L 158.00,44.00 L 157.00,43.00 L 158.00,42.00 L 161.00,42.00 L 162.00,41.00 Z M 137.00,42.00 L 138.00,41.00 L 140.00,41.00 L 141.00,42.00 L 140.00,43.00 L 138.00,43.00 Z M 127.00,42.00 L 128.00,41.00 L 129.00,42.00 L 128.00,43.00 Z M 102.00,42.00 L 103.00,41.00 L 104.00,41.00 L 105.00,42.00 L 108.00,42.00 L 109.00,43.00 L 108.00,44.00 L 104.00,44.00 Z M 99.00,42.00 L 100.00,41.00 L 101.00,42.00 L 100.00,43.00 Z M 92.00,42.00 L 93.00,41.00 L 94.00,42.00 L 93.00,43.00 Z M 80.00,42.00 L 81.00,41.00 L 82.00,42.00 L 81.00,43.00 Z M 190.00,41.00 L 191.00,40.00 L 194.00,40.00 L 195.00,41.00 L 194.00,42.00 L 191.00,42.00 Z M 173.00,41.00 L 174.00,40.00 L 175.00,41.00 L 174.00,42.00 Z M 163.00,41.00 L 164.00,40.00 L 165.00,41.00 L 164.00,42.00 Z M 101.00,41.00 L 102.00,40.00 L 103.00,41.00 L 102.00,42.00 Z M 91.00,41.00 L 92.00,40.00 L 93.00,41.00 L 92.00,42.00 Z M 72.00,41.00 L 73.00,40.00 L 75.00,40.00 L 76.00,41.00 L 75.00,42.00 L 73.00,42.00 Z M 178.00,40.00 L 179.00,39.00 L 180.00,40.00 L 179.00,41.00 Z M 174.00,40.00 L 175.00,39.00 L 176.00,40.00 L 175.00,41.00 Z M 165.00,40.00 L 166.00,39.00 L 167.00,40.00 L 166.00,41.00 Z M 99.00,40.00 L 100.00,39.00 L 101.00,40.00 L 100.00,41.00 Z M 89.00,40.00 L 90.00,39.00 L 91.00,39.00 L 92.00,40.00 L 91.00,41.00 L 90.00,41.00 Z M 175.00,39.00 L 176.00,38.00 L 177.00,39.00 L 176.00,40.00 Z M 167.00,39.00 L 168.00,38.00 L 169.00,39.00 L 168.00,40.00 Z M 97.00,39.00 L 98.00,38.00 L 99.00,39.00 L 98.00,40.00 Z M 88.00,39.00 L 89.00,38.00 L 90.00,39.00 L 89.00,40.00 Z M 83.00,39.00 L 84.00,38.00 L 85.00,39.00 L 84.00,40.00 Z M 176.00,38.00 L 177.00,37.00 L 178.00,38.00 L 177.00,39.00 Z M 169.00,38.00 L 170.00,37.00 L 171.00,38.00 L 170.00,39.00 Z M 95.00,38.00 L 96.00,37.00 L 97.00,38.00 L 96.00,39.00 Z M 87.00,38.00 L 88.00,37.00 L 89.00,38.00 L 88.00,39.00 Z M 75.00,38.00 L 76.00,37.00 L 77.00,37.00 L 78.00,38.00 L 77.00,39.00 L 76.00,39.00 Z M 187.00,38.00 L 190.00,36.00 L 192.00,36.00 L 193.00,37.00 L 190.00,39.00 L 188.00,39.00 Z M 177.00,37.00 L 178.00,36.00 L 179.00,37.00 L 178.00,38.00 Z M 170.00,37.00 L 171.00,36.00 L 172.00,37.00 L 171.00,38.00 Z M 93.00,37.00 L 94.00,36.00 L 95.00,37.00 L 94.00,38.00 Z M 73.00,37.00 L 74.00,36.00 L 75.00,36.00 L 76.00,37.00 L 75.00,38.00 L 74.00,38.00 Z M 192.00,36.00 L 193.00,35.00 L 194.00,35.00 L 195.00,36.00 L 194.00,37.00 L 193.00,37.00 Z M 172.00,36.00 L 173.00,35.00 L 174.00,36.00 L 173.00,37.00 Z M 118.00,36.00 L 119.00,35.00 L 120.00,35.00 L 121.00,36.00 L 120.00,37.00 L 119.00,37.00 Z M 120.00,35.00 L 121.00,34.00 L 123.00,34.00 L 124.00,35.00 L 123.00,36.00 L 121.00,36.00 Z M 91.00,35.00 L 92.00,34.00 L 93.00,35.00 L 92.00,36.00 Z M 187.00,34.00 L 188.00,33.00 L 189.00,34.00 L 188.00,35.00 Z M 137.00,34.00 L 138.00,33.00 L 139.00,34.00 L 138.00,35.00 Z M 124.00,35.00 L 126.00,33.00 L 131.00,33.00 L 133.00,35.00 L 132.00,36.00 L 125.00,36.00 Z M 90.00,34.00 L 91.00,33.00 L 92.00,34.00 L 91.00,35.00 Z M 84.00,34.00 L 85.00,33.00 L 88.00,36.00 L 88.00,37.00 L 87.00,38.00 L 84.00,35.00 Z M 188.00,33.00 L 189.00,32.00 L 190.00,33.00 L 189.00,34.00 Z M 181.00,32.00 L 182.00,33.00 L 182.00,34.00 L 179.00,37.00 L 178.00,36.00 L 178.00,35.00 Z M 89.00,33.00 L 90.00,32.00 L 91.00,33.00 L 90.00,34.00 Z M 83.00,33.00 L 84.00,32.00 L 85.00,33.00 L 84.00,34.00 Z M 172.00,32.00 L 173.00,31.00 L 174.00,32.00 L 173.00,33.00 Z M 145.00,31.00 L 147.00,31.00 L 148.00,32.00 L 148.00,35.00 L 146.00,37.00 L 145.00,37.00 L 144.00,36.00 L 145.00,35.00 L 145.00,34.00 L 143.00,34.00 L 142.00,33.00 Z M 125.00,32.00 L 126.00,31.00 L 130.00,31.00 L 131.00,32.00 L 130.00,33.00 L 126.00,33.00 Z M 123.00,32.00 L 124.00,31.00 L 125.00,32.00 L 124.00,33.00 Z M 121.00,32.00 L 122.00,31.00 L 123.00,32.00 L 122.00,33.00 Z M 118.00,32.00 L 119.00,31.00 L 120.00,31.00 L 121.00,32.00 L 121.00,34.00 L 120.00,35.00 L 119.00,35.00 L 118.00,34.00 Z M 75.00,32.00 L 76.00,31.00 L 77.00,32.00 L 76.00,33.00 Z M 133.00,31.00 L 134.00,30.00 L 135.00,30.00 L 136.00,31.00 L 139.00,30.00 L 140.00,31.00 L 140.00,33.00 L 139.00,34.00 L 138.00,33.00 L 135.00,33.00 Z M 130.00,31.00 L 131.00,30.00 L 132.00,30.00 L 134.00,32.00 L 133.00,33.00 L 132.00,33.00 Z M 91.00,31.00 L 92.00,30.00 L 93.00,31.00 L 93.00,32.00 L 92.00,33.00 L 91.00,32.00 Z M 74.00,31.00 L 75.00,30.00 L 76.00,31.00 L 75.00,32.00 Z M 173.00,30.00 L 174.00,29.00 L 175.00,30.00 L 175.00,31.00 L 174.00,32.00 L 173.00,31.00 Z M 90.00,30.00 L 91.00,29.00 L 92.00,30.00 L 91.00,31.00 Z M 137.00,28.00 L 138.00,27.00 L 140.00,27.00 L 141.00,28.00 L 140.00,29.00 L 138.00,29.00 Z M 129.00,28.00 L 129.00,30.00 L 128.00,31.00 L 120.00,31.00 L 119.00,30.00 L 119.00,29.00 L 120.00,28.00 L 121.00,29.00 L 123.00,29.00 L 124.00,28.00 L 127.00,28.00 L 128.00,27.00 Z M 150.00,27.00 L 151.00,26.00 L 152.00,27.00 L 151.00,28.00 Z M 136.00,27.00 L 137.00,26.00 L 138.00,27.00 L 137.00,28.00 Z M 151.00,26.00 L 152.00,25.00 L 153.00,26.00 L 152.00,27.00 Z M 140.00,29.00 L 142.00,27.00 L 142.00,26.00 L 143.00,25.00 L 145.00,27.00 L 148.00,28.00 L 149.00,29.00 L 149.00,30.00 L 148.00,31.00 L 142.00,31.00 Z M 120.00,26.00 L 121.00,25.00 L 122.00,26.00 L 124.00,26.00 L 125.00,25.00 L 126.00,26.00 L 126.00,27.00 L 125.00,28.00 L 123.00,28.00 L 122.00,29.00 L 120.00,27.00 Z M 118.00,26.00 L 119.00,25.00 L 120.00,26.00 L 119.00,27.00 Z M 91.00,26.00 L 92.00,25.00 L 93.00,26.00 L 92.00,27.00 Z M 126.00,26.00 L 128.00,24.00 L 131.00,27.00 L 130.00,28.00 L 129.00,28.00 Z M 115.00,25.00 L 116.00,24.00 L 117.00,25.00 L 117.00,26.00 L 116.00,27.00 L 115.00,26.00 Z M 172.00,24.00 L 173.00,23.00 L 175.00,26.00 L 174.00,27.00 L 173.00,27.00 L 172.00,26.00 Z M 145.00,24.00 L 146.00,23.00 L 147.00,24.00 L 146.00,25.00 Z M 139.00,24.00 L 140.00,23.00 L 141.00,24.00 L 140.00,25.00 Z M 133.00,23.00 L 134.00,24.00 L 134.00,27.00 L 133.00,28.00 L 131.00,26.00 Z M 92.00,24.00 L 93.00,23.00 L 94.00,24.00 L 94.00,25.00 L 93.00,26.00 L 92.00,25.00 Z M 165.00,23.00 L 166.00,22.00 L 167.00,23.00 L 166.00,24.00 Z M 144.00,22.00 L 145.00,23.00 L 145.00,24.00 L 144.00,25.00 L 143.00,25.00 L 142.00,24.00 Z M 121.00,23.00 L 122.00,22.00 L 124.00,24.00 L 124.00,25.00 L 123.00,26.00 L 121.00,24.00 Z M 99.00,23.00 L 100.00,22.00 L 101.00,23.00 L 100.00,24.00 Z M 97.00,23.00 L 98.00,22.00 L 100.00,24.00 L 100.00,25.00 L 99.00,26.00 L 97.00,24.00 Z M 129.00,22.00 L 130.00,21.00 L 131.00,21.00 L 132.00,22.00 L 131.00,23.00 L 130.00,23.00 Z M 117.00,22.00 L 118.00,21.00 L 119.00,22.00 L 118.00,23.00 Z M 134.00,21.00 L 135.00,20.00 L 136.00,21.00 L 135.00,22.00 Z M 114.00,21.00 L 115.00,20.00 L 116.00,21.00 L 115.00,22.00 Z M 145.00,20.00 L 146.00,19.00 L 147.00,20.00 L 146.00,21.00 Z M 138.00,20.00 L 139.00,19.00 L 140.00,20.00 L 139.00,21.00 Z M 120.00,20.00 L 121.00,19.00 L 122.00,20.00 L 121.00,21.00 Z M 17.00,82.00 L 17.00,88.00 L 18.00,89.00 L 18.00,90.00 L 23.00,93.00 L 24.00,92.00 L 27.00,91.00 L 27.00,90.00 L 28.00,89.00 L 28.00,85.00 L 27.00,84.00 L 27.00,83.00 L 28.00,82.00 L 30.00,82.00 L 31.00,83.00 L 30.00,84.00 L 30.00,86.00 L 31.00,87.00 L 33.00,87.00 L 34.00,88.00 L 36.00,88.00 L 38.00,90.00 L 39.00,90.00 L 44.00,95.00 L 44.00,96.00 L 45.00,97.00 L 44.00,98.00 L 42.00,98.00 L 41.00,97.00 L 37.00,97.00 L 37.00,98.00 L 38.00,98.00 L 40.00,100.00 L 39.00,101.00 L 38.00,101.00 L 37.00,102.00 L 34.00,103.00 L 34.00,105.00 L 35.00,104.00 L 36.00,104.00 L 40.00,108.00 L 44.00,108.00 L 46.00,110.00 L 47.00,109.00 L 56.00,109.00 L 57.00,110.00 L 59.00,110.00 L 60.00,111.00 L 62.00,111.00 L 63.00,112.00 L 65.00,112.00 L 66.00,113.00 L 70.00,113.00 L 71.00,114.00 L 70.00,117.00 L 72.00,120.00 L 75.00,120.00 L 76.00,119.00 L 76.00,117.00 L 77.00,116.00 L 81.00,116.00 L 82.00,115.00 L 86.00,115.00 L 87.00,114.00 L 89.00,114.00 L 92.00,112.00 L 94.00,112.00 L 96.00,115.00 L 95.00,116.00 L 94.00,116.00 L 93.00,117.00 L 92.00,117.00 L 91.00,118.00 L 90.00,118.00 L 89.00,119.00 L 88.00,119.00 L 87.00,120.00 L 86.00,120.00 L 85.00,121.00 L 84.00,121.00 L 83.00,122.00 L 82.00,122.00 L 77.00,125.00 L 74.00,125.00 L 73.00,126.00 L 67.00,126.00 L 63.00,122.00 L 63.00,119.00 L 62.00,119.00 L 60.00,122.00 L 60.00,126.00 L 61.00,127.00 L 61.00,128.00 L 66.00,131.00 L 76.00,131.00 L 79.00,133.00 L 81.00,133.00 L 82.00,132.00 L 84.00,132.00 L 85.00,131.00 L 86.00,131.00 L 88.00,129.00 L 90.00,129.00 L 91.00,130.00 L 91.00,131.00 L 90.00,132.00 L 90.00,134.00 L 88.00,136.00 L 89.00,137.00 L 90.00,137.00 L 91.00,136.00 L 97.00,136.00 L 99.00,134.00 L 101.00,136.00 L 102.00,135.00 L 105.00,134.00 L 105.00,133.00 L 107.00,131.00 L 108.00,131.00 L 111.00,133.00 L 114.00,133.00 L 115.00,134.00 L 118.00,134.00 L 119.00,133.00 L 122.00,133.00 L 123.00,132.00 L 129.00,132.00 L 130.00,133.00 L 138.00,133.00 L 139.00,132.00 L 143.00,132.00 L 144.00,133.00 L 147.00,133.00 L 148.00,134.00 L 152.00,134.00 L 153.00,133.00 L 155.00,133.00 L 156.00,132.00 L 159.00,131.00 L 161.00,133.00 L 161.00,134.00 L 162.00,134.00 L 163.00,135.00 L 166.00,135.00 L 167.00,134.00 L 169.00,136.00 L 175.00,136.00 L 176.00,137.00 L 177.00,137.00 L 177.00,135.00 L 176.00,134.00 L 176.00,132.00 L 175.00,131.00 L 175.00,130.00 L 176.00,129.00 L 177.00,129.00 L 182.00,132.00 L 184.00,132.00 L 185.00,133.00 L 187.00,133.00 L 190.00,131.00 L 200.00,131.00 L 201.00,130.00 L 204.00,129.00 L 206.00,126.00 L 206.00,121.00 L 204.00,119.00 L 203.00,119.00 L 203.00,122.00 L 199.00,126.00 L 193.00,126.00 L 192.00,125.00 L 190.00,125.00 L 189.00,124.00 L 187.00,124.00 L 186.00,123.00 L 185.00,123.00 L 184.00,122.00 L 183.00,122.00 L 182.00,121.00 L 181.00,121.00 L 180.00,120.00 L 179.00,120.00 L 178.00,119.00 L 177.00,119.00 L 176.00,118.00 L 175.00,118.00 L 174.00,117.00 L 171.00,116.00 L 170.00,115.00 L 171.00,114.00 L 171.00,113.00 L 172.00,112.00 L 174.00,112.00 L 175.00,113.00 L 176.00,113.00 L 177.00,114.00 L 179.00,114.00 L 180.00,115.00 L 184.00,115.00 L 185.00,116.00 L 189.00,116.00 L 190.00,117.00 L 190.00,119.00 L 193.00,121.00 L 194.00,120.00 L 195.00,120.00 L 195.00,119.00 L 196.00,118.00 L 196.00,116.00 L 195.00,115.00 L 195.00,114.00 L 196.00,113.00 L 201.00,113.00 L 202.00,112.00 L 204.00,112.00 L 205.00,111.00 L 206.00,111.00 L 207.00,110.00 L 209.00,110.00 L 210.00,109.00 L 219.00,109.00 L 220.00,110.00 L 221.00,110.00 L 221.00,109.00 L 222.00,108.00 L 226.00,108.00 L 230.00,104.00 L 233.00,105.00 L 232.00,104.00 L 232.00,103.00 L 231.00,103.00 L 226.00,100.00 L 227.00,99.00 L 230.00,98.00 L 229.00,97.00 L 226.00,97.00 L 225.00,98.00 L 223.00,98.00 L 222.00,99.00 L 221.00,98.00 L 221.00,97.00 L 222.00,96.00 L 222.00,95.00 L 227.00,90.00 L 228.00,90.00 L 233.00,87.00 L 236.00,87.00 L 236.00,85.00 L 237.00,84.00 L 238.00,85.00 L 238.00,89.00 L 241.00,92.00 L 246.00,92.00 L 248.00,90.00 L 248.00,89.00 L 249.00,88.00 L 249.00,82.00 L 245.00,78.00 L 244.00,78.00 L 243.00,77.00 L 238.00,77.00 L 237.00,78.00 L 235.00,78.00 L 234.00,77.00 L 234.00,73.00 L 236.00,70.00 L 236.00,67.00 L 237.00,66.00 L 237.00,65.00 L 236.00,66.00 L 234.00,66.00 L 233.00,67.00 L 230.00,68.00 L 227.00,71.00 L 227.00,72.00 L 226.00,73.00 L 225.00,72.00 L 225.00,69.00 L 223.00,69.00 L 219.00,73.00 L 219.00,77.00 L 218.00,78.00 L 218.00,81.00 L 216.00,83.00 L 216.00,84.00 L 215.00,85.00 L 214.00,84.00 L 214.00,71.00 L 213.00,70.00 L 213.00,68.00 L 212.00,67.00 L 212.00,66.00 L 207.00,61.00 L 206.00,61.00 L 205.00,60.00 L 203.00,60.00 L 202.00,59.00 L 191.00,59.00 L 190.00,60.00 L 188.00,60.00 L 187.00,61.00 L 185.00,61.00 L 184.00,62.00 L 182.00,62.00 L 179.00,60.00 L 179.00,58.00 L 177.00,56.00 L 174.00,58.00 L 174.00,61.00 L 173.00,62.00 L 169.00,57.00 L 170.00,56.00 L 171.00,56.00 L 171.00,55.00 L 169.00,55.00 L 168.00,54.00 L 170.00,51.00 L 169.00,50.00 L 170.00,49.00 L 172.00,49.00 L 173.00,48.00 L 176.00,48.00 L 177.00,47.00 L 179.00,47.00 L 180.00,46.00 L 183.00,46.00 L 184.00,45.00 L 187.00,45.00 L 188.00,44.00 L 189.00,44.00 L 190.00,45.00 L 193.00,45.00 L 195.00,47.00 L 196.00,47.00 L 198.00,50.00 L 196.00,53.00 L 194.00,51.00 L 193.00,52.00 L 193.00,54.00 L 194.00,55.00 L 196.00,55.00 L 197.00,54.00 L 198.00,54.00 L 198.00,53.00 L 199.00,52.00 L 199.00,48.00 L 200.00,47.00 L 198.00,45.00 L 196.00,45.00 L 195.00,44.00 L 196.00,43.00 L 195.00,42.00 L 196.00,41.00 L 197.00,41.00 L 199.00,38.00 L 200.00,38.00 L 200.00,37.00 L 198.00,37.00 L 197.00,36.00 L 197.00,35.00 L 198.00,34.00 L 198.00,33.00 L 201.00,30.00 L 202.00,30.00 L 197.00,30.00 L 196.00,31.00 L 195.00,30.00 L 193.00,30.00 L 190.00,32.00 L 189.00,31.00 L 189.00,30.00 L 188.00,30.00 L 187.00,31.00 L 185.00,31.00 L 183.00,33.00 L 182.00,33.00 L 180.00,30.00 L 181.00,29.00 L 181.00,27.00 L 180.00,27.00 L 177.00,30.00 L 176.00,29.00 L 176.00,28.00 L 177.00,27.00 L 177.00,23.00 L 175.00,21.00 L 172.00,22.00 L 169.00,20.00 L 167.00,20.00 L 165.00,22.00 L 165.00,24.00 L 167.00,26.00 L 167.00,25.00 L 166.00,24.00 L 168.00,22.00 L 169.00,23.00 L 169.00,25.00 L 171.00,25.00 L 172.00,26.00 L 172.00,31.00 L 171.00,32.00 L 170.00,35.00 L 167.00,38.00 L 166.00,38.00 L 164.00,40.00 L 163.00,40.00 L 160.00,42.00 L 157.00,42.00 L 156.00,43.00 L 149.00,43.00 L 148.00,42.00 L 145.00,42.00 L 144.00,41.00 L 140.00,41.00 L 139.00,40.00 L 127.00,40.00 L 126.00,41.00 L 122.00,41.00 L 121.00,42.00 L 119.00,42.00 L 118.00,43.00 L 110.00,43.00 L 109.00,42.00 L 107.00,42.00 L 106.00,41.00 L 104.00,41.00 L 103.00,40.00 L 102.00,40.00 L 100.00,38.00 L 99.00,38.00 L 95.00,34.00 L 95.00,33.00 L 94.00,32.00 L 94.00,26.00 L 96.00,24.00 L 98.00,26.00 L 99.00,26.00 L 101.00,23.00 L 100.00,22.00 L 100.00,21.00 L 99.00,21.00 L 98.00,20.00 L 97.00,20.00 L 94.00,22.00 L 91.00,21.00 L 89.00,23.00 L 89.00,27.00 L 91.00,29.00 L 90.00,30.00 L 88.00,30.00 L 86.00,28.00 L 84.00,28.00 L 85.00,31.00 L 83.00,33.00 L 81.00,31.00 L 78.00,31.00 L 77.00,30.00 L 75.00,30.00 L 74.00,31.00 L 71.00,29.00 L 70.00,30.00 L 69.00,30.00 L 68.00,29.00 L 64.00,29.00 L 64.00,30.00 L 67.00,32.00 L 67.00,34.00 L 68.00,34.00 L 69.00,35.00 L 69.00,36.00 L 68.00,37.00 L 65.00,37.00 L 65.00,38.00 L 66.00,38.00 L 69.00,41.00 L 70.00,41.00 L 71.00,42.00 L 70.00,43.00 L 71.00,44.00 L 70.00,45.00 L 68.00,45.00 L 67.00,46.00 L 66.00,46.00 L 66.00,47.00 L 67.00,48.00 L 67.00,49.00 L 66.00,50.00 L 67.00,53.00 L 70.00,55.00 L 73.00,54.00 L 73.00,52.00 L 71.00,52.00 L 70.00,53.00 L 68.00,51.00 L 69.00,50.00 L 69.00,49.00 L 73.00,45.00 L 82.00,45.00 L 83.00,46.00 L 86.00,46.00 L 87.00,47.00 L 90.00,47.00 L 91.00,48.00 L 93.00,48.00 L 94.00,49.00 L 96.00,49.00 L 97.00,50.00 L 96.00,51.00 L 97.00,52.00 L 97.00,54.00 L 96.00,55.00 L 95.00,55.00 L 95.00,56.00 L 96.00,56.00 L 97.00,57.00 L 95.00,59.00 L 95.00,60.00 L 93.00,62.00 L 92.00,61.00 L 92.00,58.00 L 91.00,57.00 L 88.00,57.00 L 87.00,58.00 L 87.00,60.00 L 85.00,62.00 L 82.00,62.00 L 81.00,61.00 L 79.00,61.00 L 78.00,60.00 L 76.00,60.00 L 75.00,59.00 L 65.00,59.00 L 64.00,60.00 L 62.00,60.00 L 61.00,61.00 L 58.00,62.00 L 54.00,66.00 L 54.00,68.00 L 53.00,69.00 L 53.00,71.00 L 52.00,72.00 L 52.00,78.00 L 51.00,79.00 L 52.00,80.00 L 52.00,84.00 L 51.00,85.00 L 50.00,84.00 L 50.00,82.00 L 49.00,82.00 L 48.00,83.00 L 47.00,82.00 L 47.00,81.00 L 48.00,80.00 L 48.00,78.00 L 47.00,77.00 L 47.00,73.00 L 43.00,69.00 L 41.00,69.00 L 41.00,72.00 L 40.00,73.00 L 38.00,71.00 L 38.00,70.00 L 37.00,69.00 L 36.00,69.00 L 34.00,67.00 L 33.00,67.00 L 32.00,66.00 L 29.00,66.00 L 30.00,67.00 L 30.00,70.00 L 31.00,71.00 L 31.00,72.00 L 32.00,72.00 L 33.00,73.00 L 32.00,74.00 L 32.00,77.00 L 31.00,78.00 L 29.00,78.00 L 28.00,77.00 L 25.00,77.00 L 24.00,78.00 L 22.00,78.00 L 21.00,79.00 L 20.00,79.00 Z M 148.00,19.00 L 149.00,18.00 L 150.00,18.00 L 151.00,19.00 L 151.00,20.00 L 150.00,21.00 Z M 116.00,19.00 L 117.00,18.00 L 118.00,19.00 L 117.00,20.00 Z M 153.00,17.00 L 154.00,18.00 L 154.00,21.00 L 153.00,22.00 L 154.00,23.00 L 153.00,24.00 L 151.00,24.00 L 150.00,23.00 L 151.00,22.00 L 150.00,21.00 L 151.00,20.00 L 152.00,20.00 L 152.00,18.00 Z M 114.00,17.00 L 115.00,18.00 L 115.00,20.00 L 114.00,21.00 L 113.00,20.00 L 113.00,18.00 Z M 150.00,17.00 L 151.00,16.00 L 152.00,17.00 L 151.00,18.00 Z M 146.00,17.00 L 147.00,16.00 L 148.00,17.00 L 148.00,18.00 L 147.00,19.00 L 146.00,18.00 Z M 139.00,17.00 L 140.00,16.00 L 141.00,17.00 L 141.00,18.00 L 140.00,19.00 L 139.00,18.00 Z M 118.00,17.00 L 119.00,16.00 L 120.00,17.00 L 119.00,18.00 Z M 114.00,16.00 L 115.00,15.00 L 116.00,15.00 L 117.00,16.00 L 117.00,17.00 L 116.00,18.00 L 115.00,18.00 L 114.00,17.00 Z M 148.00,15.00 L 149.00,14.00 L 150.00,15.00 L 149.00,16.00 Z M 140.00,14.00 L 141.00,13.00 L 142.00,14.00 L 142.00,15.00 L 141.00,16.00 L 140.00,15.00 Z M 136.00,14.00 L 137.00,13.00 L 138.00,14.00 L 137.00,15.00 Z M 117.00,14.00 L 118.00,13.00 L 119.00,14.00 L 118.00,15.00 Z M 141.00,13.00 L 142.00,12.00 L 143.00,13.00 L 142.00,14.00 Z M 142.00,12.00 L 143.00,11.00 L 144.00,12.00 L 143.00,13.00 Z M 134.00,9.00 L 135.00,8.00 L 136.00,9.00 L 135.00,10.00 Z M 132.00,6.00 L 133.00,5.00 L 134.00,6.00 L 134.00,7.00 L 133.00,8.00 L 132.00,7.00 Z M 113.00,15.00 L 113.00,16.00 L 112.00,17.00 L 112.00,24.00 L 115.00,27.00 L 115.00,28.00 L 117.00,30.00 L 117.00,33.00 L 118.00,34.00 L 118.00,37.00 L 117.00,38.00 L 116.00,38.00 L 116.00,40.00 L 117.00,39.00 L 120.00,39.00 L 121.00,38.00 L 125.00,38.00 L 126.00,37.00 L 139.00,37.00 L 140.00,38.00 L 144.00,38.00 L 145.00,39.00 L 148.00,39.00 L 149.00,40.00 L 150.00,39.00 L 150.00,38.00 L 149.00,38.00 L 148.00,37.00 L 148.00,33.00 L 154.00,24.00 L 154.00,18.00 L 153.00,17.00 L 153.00,16.00 L 150.00,13.00 L 149.00,13.00 L 146.00,11.00 L 142.00,11.00 L 141.00,12.00 L 139.00,12.00 L 138.00,11.00 L 138.00,10.00 L 137.00,10.00 L 135.00,8.00 L 136.00,7.00 L 136.00,6.00 L 134.00,4.00 L 134.00,3.00 L 132.00,3.00 L 132.00,4.00 L 130.00,6.00 L 130.00,7.00 L 131.00,7.00 L 132.00,8.00 L 132.00,9.00 L 131.00,10.00 L 130.00,9.00 L 129.00,10.00 L 127.00,10.00 L 127.00,11.00 L 126.00,12.00 L 125.00,11.00 L 120.00,11.00 L 119.00,12.00 L 117.00,12.00 L 116.00,13.00 L 115.00,13.00 Z" fill="#C9A227" fill-rule="evenodd"/>
</svg>
